<svg preserveAspectRatio="xMidYMid meet" width="145" height="164" viewBox="0 0 145 164" fill="none" xmlns="http://www.w3.org/2000/svg">
<path fill-rule="evenodd" clip-rule="evenodd" d="M63.7324 14.0046L62.8126 14.1361L60.7758 13.8074L59.5931 14.9251L57.8848 15.6484L56.7679 15.7799L56.3079 16.6346L54.5339 16.4374L52.2343 14.4649L52.0372 12.5582L51.1173 10.3884L51.7744 6.83797L52.8257 5.39147L52.0372 3.41898L50.7888 2.82722L51.3144 0.986243L50.4603 0L48.5549 0.197241L49.0148 1.38076L47.6351 2.95873L43.43 4.53673L40.8019 5.19423L39.6849 6.18047L36.794 5.12845L34.0344 4.60247L33.3774 4.99699L34.9543 6.04896L34.7572 8.87619L35.2171 11.5062L38.3709 11.8349L38.568 12.7554L35.8741 13.9389L35.4142 15.7142L33.903 16.3716L31.1435 17.3579L30.4207 18.6071L27.5298 18.9359L25.5587 16.7004L24.8359 17.2264L24.1789 14.7279L23.1277 13.4129L21.8793 14.8594L14.7176 14.7936V17.3579L16.8858 17.8181L16.7544 19.3961L16.0317 19.0016L13.9292 19.6591V22.6836L15.5717 24.2616L16.1631 26.6286L16.0974 28.4695L14.6519 39.91L11.301 39.7127L10.8411 40.3702L7.81874 41.1592L3.74511 43.9864L3.48228 45.9589L2.62814 47.4054L3.08807 49.6409L0.919865 50.8901L0.985553 52.6654L0 53.3886L1.70828 57.2021L3.87652 59.7006L3.21949 61.5416L5.65049 61.7388L7.1617 63.9743L10.3811 64.1058L13.2721 61.6073L13.4035 67.985L15.1118 68.4453L17.0829 67.722L19.8425 68.1165L21.7479 67.985L22.4706 66.7358L25.6244 65.0263L27.4641 63.5141L32.2604 62.7908L31.9976 65.881L32.5889 67.5248L32.3918 70.352L36.5969 74.0997L40.7362 74.7572L42.3131 76.3352L44.8098 77.1242L46.4524 78.3734L48.752 78.3077L50.9202 79.5569L51.2488 81.9897L52.0372 83.1731L52.2343 85.0141L51.1831 85.0799L52.957 89.9453L59.9873 90.1426L59.5931 92.5096L60.1187 94.2191L62.2212 95.3368L63.2725 97.9668L62.944 101.254L62.0898 103.095L62.6155 105.462L61.5642 106.317L62.8126 108.684L63.0754 114.338L67.0176 115.127L68.3974 114.338L70.9598 115.456L71.7483 116.705L72.4053 120.519L72.9966 122.163L74.3107 122.36L75.6247 121.637L77.0045 122.426L77.2016 124.727L77.0045 127.225L76.5446 129.592L78.2529 128.803L80.2897 131.236L80.6182 134.589L77.8587 136.891L75.6905 138.6L72.2082 142.676L68.3317 148.331L70.5656 147.871L74.6392 151.092L75.8876 150.961L79.9612 153.657L83.115 155.958L85.6117 158.785L84.3633 160.758L85.7431 163.19L87.6485 160.758L88.6341 156.813L90.7366 154.84L93.299 151.553L96.2557 144.189L98.4896 141.887L99.0152 139.849L99.2123 135.641L98.3582 133.34L98.5553 130.184L101.249 126.042L105.191 122.689L109.134 121.505L111.499 119.598L117.084 118.02H120.96L121.683 115.522L124.442 113.681L124.837 109.407L128.188 103.95L128.516 98.3613L129.567 96.6518L129.764 93.9561L130.487 87.4469L129.83 79.6227L130.75 76.5325L131.67 76.4667L134.232 72.8505L136.401 68.1165L141.46 62.3305L143.234 59.5691L144.548 52.6654L143.891 50.1011L142.577 44.7754L141.197 43.4605L138.043 43.3289L135.218 42.0797L130.422 37.4115L124.902 33.9268L119.383 34.124L112.222 31.8885L107.951 33.2035L108.477 30.9023L106.703 28.4038L100.526 25.9053L95.8615 24.3931L93.1019 27.0888L92.9048 22.9466L86.4001 22.2891L85.2832 20.9741L88.0427 17.5551L87.977 14.6621L86.0059 14.0046L84.0348 6.64073L83.1806 4.33949L81.9323 4.53673L79.6327 8.3502L78.45 11.4404L77.0702 13.0184L75.2962 13.3471L74.7706 12.1637L73.9822 11.9664L72.7995 13.1499L71.2226 12.2952L69.1201 11.3747L67.3461 11.8349L65.8349 11.4404L65.5064 12.6239L66.0977 13.4787L65.7692 14.3334L63.7324 14.0046Z" fill="white" fill-opacity="0.4"/>
</svg>
