<svg preserveAspectRatio="xMidYMid meet" width="189" height="147" viewBox="0 0 189 147" fill="none" xmlns="http://www.w3.org/2000/svg">
<path fill-rule="evenodd" clip-rule="evenodd" d="M149.738 144.123L150.132 141.756L151.447 139.915L150.395 138.271L148.293 138.205L144.482 139.389L143.036 141.23L143.694 144.846L146.913 146.161L149.738 144.123ZM158.411 14.9251L154.403 10.9144L151.512 8.48168L149.015 6.70645L143.956 2.69572L140.08 1.18348L134.495 0L130.421 0.131497L127.071 0.854736L125.954 2.82722L128.385 3.81346L130.027 5.9832L129.239 7.29819L129.304 11.5719L130.553 13.3471L127.662 15.9114L122.866 14.3991L123.26 17.4236L123.457 21.5001L125.231 23.2096L126.808 22.6836L130.356 23.3411L131.998 21.8288L135.349 23.1438L140.08 25.9711L140.54 27.4175L137.715 26.9573L133.247 27.4833L131.67 28.6668L130.75 31.3625L126.611 32.9405L124.574 35.1102L120.697 34.2555L118.595 33.9268L118.332 36.5567L120.237 38.069L121.486 39.4497L119.843 40.7647L118.595 42.9344L115.375 44.3809L110.448 44.5124L105.717 45.9589L102.826 48.1286L100.723 46.8136L96.6498 46.8794L90.5394 44.3809L86.9257 43.7892L82.7206 44.3152L75.3619 43.4604L71.7482 43.5262L68.6602 41.1592L65.4407 37.4115L63.2067 36.9512L58.0161 34.4527L53.2855 33.861L49.0805 33.2035L47.1094 31.4283L46.2552 26.6286L42.4444 23.3411L37.1225 21.8288L33.3773 19.6591L31.2092 16.7661L30.0922 17.0949L28.9095 19.8563L26.4128 20.2508L28.0554 24.3273L27.0041 26.1683L19.9738 24.8533L20.6308 32.1515L19.3168 33.072L13.4035 34.65L19.1197 41.6852L17.2143 42.7372L18.3312 45.0384L18.1998 45.9589L13.732 48.1944L13.0749 49.7724L8.86997 50.2984L8.47569 52.9284L4.73062 52.3366L2.62814 53.1256L0 55.0981L0.722722 56.0843L0.0656875 57.0706L2.03679 60.9498L3.08803 60.5553L5.38765 61.4758L5.78186 63.1195L6.96455 65.5523L7.88442 66.8015L10.9725 68.774L12.8779 72.0615L19.054 73.771L24.0475 78.7022L24.573 82.1211L26.5441 84.2909L26.9384 86.4606L24.2445 85.8689L26.3471 90.4713L30.4207 93.1013L36.0055 95.9943L37.2539 95.0081L40.3419 96.323L44.5469 99.0188L46.6495 99.6105L48.2921 101.649L51.2487 102.438L54.5339 104.279L58.7389 105.265L63.0096 105.659L64.9807 104.739L65.9662 108.092L67.6746 104.936L69.3829 103.884L72.1424 104.87L74.0478 104.936L75.8218 106.12L78.5814 105.594L81.1438 102.438L84.6261 99.8078L87.8455 100.794L89.948 99.0845L92.2477 101.649L91.4592 103.424L95.4671 104.016L97.4382 103.753L99.2123 106.185L100.986 107.172L101.84 110.393L102.366 113.878L99.6722 117.363L100.132 122.294L103.812 121.637L105.323 125.45L107.754 126.305L107.228 129.724L110.185 131.302L111.827 132.091L114.324 130.907L114.718 132.617L115.178 133.603L117.084 133.669L115.835 128.935L117.609 128.277L119.383 127.291H122.209L125.691 126.831L128.385 124.595L130.356 126.173L133.772 126.897L133.641 129.329L135.612 131.039L139.488 132.091L141.065 131.433L146.125 132.748L145.533 134.392L146.979 137.417L148.95 137.154L149.475 132.748L153.155 132.157L157.885 130.053L159.528 127.949L161.039 129.329L162.879 127.423L166.887 126.962L171.223 123.478L175.363 119.598L177.531 114.601L179.042 109.078L180.422 104.542L182.261 104.213L182.196 100.86L181.67 97.5065L179.173 96.1915L177.531 93.9561L179.371 92.8383L178.319 89.7481L174.771 86.5264L171.223 82.7129L168.201 78.5707L163.536 76.2694L164.127 73.245L166.624 71.141L167.281 68.8397L171.683 67.6562L170.106 65.4208L167.872 65.2893L164.062 63.6455L161.499 66.67L158.28 65.4208L157.294 63.514L154.206 62.8565L151.118 59.9636L151.906 57.9911L155.192 57.7938L155.98 55.0981L158.345 52.2051L160.579 50.7586L163.47 52.9284L162.222 55.6898L163.733 57.3336L162.813 59.3061L165.967 58.1226L167.544 56.2158L171.683 54.9666L173.063 52.3366L175.56 50.1011L176.217 47.2081L178.582 48.5231L181.604 48.6546L179.83 46.4849L183.97 44.7754L183.904 42.4742L187.518 44.8412L186.269 42.8029L187.912 42.7372L185.415 37.9375L182.327 34.4527L184.233 33.0062L188.7 33.7295L188.306 29.7845L186.466 25.3136L186.729 23.8013L185.875 20.1194L181.342 21.3028L179.633 22.9466H174.706L170.763 19.1331L164.916 16.1744L158.411 14.9251Z" fill="white" fill-opacity="0.4"/>
</svg>
