<svg xmlns="http://www.w3.org/2000/svg" viewBox="0 0 458.75 278.19"><g id="oxookg.tif"><path d="M245.48,207.62c-.06-.93-.13-1.86-.12-1.78-2.4,0-5.05.81-6.31-.17-2.52-2-1.26-4.24.47-6.8a183.09,183.09,0,0,0,11-18.73c1.17-2.27,2.64-2.37,4.54-3.29,5.41-2.62,10.21-.61,15.22.43,1.56.33,3.44.78,4.41,1.86a9.18,9.18,0,0,1,2.18,5.19c0,.57-2.76,1.33-4.69,3,2,.31,4.22,1.22,6.08.77s3.33-2.25,5.29-3.7c-.28-1-.83-3-1.42-5.21,4.82-1.46,3.36,2.2,4,4.61,2.39-6.83,9.41-5.19,13.76-8.38-.49-1-.95-1.91-1.77-3.53l13.21,3.91C310,174,307.68,172.24,307,170s.2-5.1.4-7.82c5.62-1.69,4.18,3.59,5.83,5.7,1,4.45,5.3,8.37,1.83,13.74,6.21-.84,1.11-6.73,3.8-8.09-1.17-1.51-2.2-3-3.44-4.32a8,8,0,0,0-2.34-1.18,4.82,4.82,0,0,1,4.38-6c2.87,0,5.75,2.26,9.66,4-1.82-1.81-3.3-3.16-4.63-4.63-.91-1-2.46-3-2.31-3.13,3.67-3.71,2.09-10.45,7.49-13,2.38-1.13,4.86-2,7.53-3.15-1-2.37-1.83-4.37-3.22-7.66,2.22.8,3.14,1.1,4,1.46,1.25.49,2.61,1.65,3.72,1.45,7.71-1.41,10.66,1.65,8.75,9.27-.54,2.18-.86,4.42-1.28,6.63l1.24.28,1.42-5.74a111.07,111.07,0,0,0,12.32.43c1.51-.1,2.92-2,4.08-3.23,7-2.74,7.59,5.88,13,7.61-.27-1.6-.47-2.81-.61-3.6,2.32-.44,5.14-.23,6.64-1.53,1-.89.2-3.9.2-7l7,2.9c2-4.21,2.14-3.93,6.14-.91,1.5,1.14,4.47.46,6.76.43,2,0,4.84-1.24,5.91-.31,5.06,4.37,8.54,1.56,12.19-1.81.2-.19.87.15,1.33.24l3.13,3.38,1.12-1.36-4.37-1.91c5.52-4.17,18.28-3.47,25.44,1.55v-3.86c7.85-.47,2.85,6.76,6.74,9.19-1.76.43-2.91,1.11-3.54.79-2.92-1.47-2.83.94-3.41,2.44-.76,1.94-1.43,3.9-2.43,6.65L454.3,161,449,173.27l-9.15,4.06c7.35,8.4,6.12,17.7,4.19,27.27-2.86-6.75-9.19-12-7.55-20.67.92-4.87,1.38-9.82,2-14.73l-1.64-.34c-.57,2.12-1.13,4.24-1.83,6.84l-4.18-3.54c-.75,3.65-1.35,6.61-2.11,10.28-2.07.29-5.77-.09-8.4,1.42-2.79,1.59-4.95,4.74-6.69,7.63s-3,6.16-1,9.64c6-2.64,8.88-1.85,11.49,3.25,2.12,4.12,4,8.37,5.75,12.66.22.55-1,1.67-1.78,3l-4-9.84c-1.32,4.89-2.57,9.63-3.9,14.35-.22.78-.7,2.11-1.11,2.13-6.22.24-4.84,6.48-7.52,9.37l5.38,8.11-1.09,1.52c-1.21-.62-2.65-1-3.58-1.91-2.62-2.52-2.25-8.76-8.56-6.74a38.47,38.47,0,0,1-1.65-3.64l-4.19,5.82,8.48,2.5a13.21,13.21,0,0,0-2.65,1c-.64.44-1.06,1.19-.77.85,1.47,4.7,3.34,8.49,3.74,12.43.79,7.82-6.74,15.41-14.33,14.33-2.66-.38-4,.4-4.51,2.16a6.05,6.05,0,0,0,.8,4.8c4,5.2,3.89,7.82-1.33,13-2.46-2-5-3.93-8.25-6.52l-1.45,9h.05c-.87-4.69-1.73-9.38-2.69-14.54l-3.57,1.44-6.65-10.49c-9.57,6.32-19.85,11.58-12.95,26.12-5.65-3.76-10.37-7-11.9-13.7-.79-3.51.37-9.07-5.95-9.89-1.06-.14-1.49-3.28-2.78-3.95a28.79,28.79,0,0,0-7.76-2.32c-3.18-.62-6.42-.88-10-1.34a7.06,7.06,0,0,0,1.31,2.19c4.22,3.53,5,5.84.87,8.92-5.23,3.86-11.53,6.31-17.47,9.12-.57.27-2.33-.95-2.9-1.87-4.05-6.56-7.88-13.25-11.92-19.81-.48-.77-1.82-1-3.18-1,5.64,8.28,8.11,18.28,15.37,25.31.83.8,2.9.81,4.25.5a51.76,51.76,0,0,0,6.63-2.42l1.44,1.28c-1.12,2.56-1.76,5.49-3.44,7.6-3.83,4.8-8.06,9.29-12.34,13.69-2.24,2.31-2.95,4.66-1.74,7.56,2.23,5.35.68,9.59-3.41,13.41-2.82,2.63-5.31,5.58-3.83,10.05.25.74-.37,2.56-.74,2.6-3.47.39-3.55,3.59-4.68,5.67-3.7,6.79-10.57,8.08-17,10.16-.77.26-2.69-.79-3-1.61-2.59-7.49-5.24-15-7.2-22.67-.73-2.86,0-6.24.63-9.26,1.13-5.21.87-9.88-3.17-13.83-.69-.67-1.61-1.65-1.57-2.45.39-7.34-5.47-9-10.39-10.56-3.15-1-7,.23-10.53.6-5.62.58-10-1.28-13.13-6.11a17,17,0,0,0-3.15-3.83c-2.68-2.27-3.31-4.73-1.7-7.92.56-1.12,1.11-2.75.72-3.78-2.75-7.22,3-10.43,6.6-14.73,1.27-1.53,2.35-3.23,3.48-4.86a32.37,32.37,0,0,1,2.19-3.25c2.14-2.38,6.17-4.27-.25-6.92-1.31-.54-.71-6.34-.37-9.65.07-.66,3-1.28,4.6-1.44a22,22,0,0,1,4.74.48c2.49-4.16.53-6.59-2.34-8,4.91-3.8,9.94-7.58,14.8-11.58.6-.5.36-2.12.4-3.22.08-2.41.24-4.71,3.44-4.92a8.07,8.07,0,0,1-.53,2.76c-2.75,4.37-1.19,4.71,3.07,3.9,3.64-.7,7.45-.47,11.48-.67-.79-3-2.79-6.47,2.82-5.46l-.69-3.74,6.77-2.46c-2.94-.52-5.7.61-8.15.12-3.16-.62-3.9-3.59-3.4-6.67l5.16-6.33-4.46-1.42-.7,7.76c-3.89,1.33-4.13,2.48-1.79,7.78-.86,1.44-1.67,2.75-2.43,4.09-1.09,1.94-2.15,3.9-3.54,6.43ZM282,247.07c-8.89,2.39-11.57,1-14.65-8.31l-5.9,5.6c-1.69-2.76-2.89-5.68-4.93-7.8s-4.91-3.46-7.42-5.15l-1.43,1.77a46.76,46.76,0,0,0,5.29,4.19c3.74,2.22,2.48,4.92,1.05,7.7a26.68,26.68,0,0,1-1.72,2.55l-3.11-2.33,5.62-1.66-11-10c-1.07.57-2.3,1.83-3.34,1.68-4.79-.68-7.22,4.05-7.62,6-.92,4.56-3.33,6-7.16,7.31a16.56,16.56,0,0,0,6.47,0c3.24-.59,6.41-1.67,9.66-2,5.48-.49,5.74,0,5.11,5.51l12.89,5.49c.17-4.26,1.83-4.84,5.44-3.46,3,1.13,6.47,1.15,9.75,1.28C281.63,255.76,282.73,254.39,282,247.07Zm1.69-19.3c-2.44.79-4.45,2.15-6.14,1.83-4.86-.88-5.58,2.43-6.92,5.61s.49,3.48,2.72,3.53c4.28.1,8.56.14,12.84.06,1,0,2-.57,4.28-1.25l-7.82-5.61C283,230.75,283.32,229.4,283.73,227.77Zm18.6,29.74-1.25.83c1.62,2.55,2.84,5.58,5,7.43,1,.87,4-.53,6-.89Z" transform="translate(-27.34 -117.65)"/><path d="M128,180.38c-4.12,4.94-8.71,9.57-12.19,14.93-2.86,4.4-1.48,7.86,3.2,10.3,3.1,1.61,5.54,3,5,7.18-.15,1.16,1.13,2.51,1.37,3,2.24-2.74,5-5.06,6.36-8,1.41-3.17,1.78-6.94,1.94-10.47.14-2.93,1.24-4.88,3.95-4.4,2.24.4,5.44,1.79,6.1,3.53,1.82,4.81,1.62,5.06,5.81,1.92a16.16,16.16,0,0,1,2-1c.51,2.27,1.7,4.46,1.25,6.22-1.33,5.17,1.31,7.32,6.54,8.78-5,6.68-14.65,4.28-19,11.23l4.84-.9c-.46,1.67-.79,2.85-1.1,4l5.63,4.3c-3.52,3.49-6.19,2.34-8.92-1.14-5.89,5.88-13.86,9.43-15.54,18.58-.12.64-1.12,1.16-1.78,1.65-2.79,2-5.39,4.49-8.47,5.93a22.85,22.85,0,0,1-8.89,1.8c-3.72.08-8.05-1.95-10.67,1.78-3.12,4.45-3,9.79-1.31,14.86.86,2.63,2.93,3,5.1,1.21,2-1.66,3.82-3.47,6.36-5.79-.43,3.4-.74,5.78-1.1,8.58l7.57-1c-2.63,7.71.59,11.38,7.27,13,5.61,1.4,3.92-5.46,7.93-6.25l.8,3.85c3.1-1.62,12.65-.41,15.41,1.48,3.54,2.44,7.32,4.55,11.09,6.64,5.8,3.23,5.83,3.17,3.28,9.93,4.86.48,9.46,1.09,14.07,1.36a8.39,8.39,0,0,1,7.55,10.28c-1.15,5.82-2.74,11.56-4.45,17.25-.4,1.33-2,3.18-3.11,3.26-4.15.31-6.13,3.07-7.94,6.07-1.71,2.84-2.8,6.1-4.75,8.73-1.71,2.33-4.23,4-6.79,6.4-.31.78-.57,2.72-1.65,3.92-2.06,2.27-6.33,3.94-6.55,6.17-.41,4.21-5.51,7.52-2.21,12.46.87,1.3.53,3.89-.08,5.6a72.23,72.23,0,0,1-4.14,8.31c-4.88-3.46-5.91-7.4-4.15-12.7,1.33-4,.18-7.87-1.82-11.89-1.63-3.3-1.66-7.66-1.54-11.52.21-7,1.09-13.9,1.67-20.86.29-3.52-.9-6.16-3.67-8.68a149.36,149.36,0,0,1-11.86-12.76c-3.12-3.6-3.32-12.79.34-15.84,4.42-3.7,3.17-6.57.24-10-4.19,2-7.93.86-9.66-3.55-2.4-6.13-6.84-8.61-13.08-8.69-5-.06-8.35-3.29-11.09-6.8-4.29-5.49-8.05-11.38-12-17.1-1-1.35-1.66-3.33-3-3.88-10.06-4.3-9.84-12.8-9-21.49a47.09,47.09,0,0,1,2-9.22c.3-1,1.72-1.59,2.91-2.62-.64-1.69-1.44-3.67-2.15-5.68-3-8.41-5.81-16.85-8.85-25.22-1.61-4.43-7.81-7.08-12.2-5.47a7.92,7.92,0,0,1-10.41-9.16c.88-3.82,2.74-7.41,4.16-11.1H27.34c1.53-6,1.53-6,11.05-5.28-3.68-7.08-1.15-11.44,6.58-14.15,6.24-2.19,10.61-.36,15.23,3.39a85.69,85.69,0,0,0,12.71,8.72,8.06,8.06,0,0,0,6.74-.15c3.37-1.91,6.08-1.69,8.53.88,3.08,3.25,5.84,6.8,8.79,10.17A31.14,31.14,0,0,0,99.9,168c1.14,1,2.33,2,3.49,3,2.71-3.36,2.26-4-2.08-5.74-2.37-1-4.09-3.53-6.1-5.37l.8-1.51,4.72-.87v-6.73l1.08-1.15c5.9-1.31,5.9-1.31,9.53,6.07l4.64-4.26c-1.78,5.56-3.19,9.91-4.77,14.83l-3.46-.16c1.09,7.57,9.18,2,11.79,7.11l3.32-3.9c-3-3.38-1.47-5.81,2.43-8.36v10.6l3.38-2.8c-.12,1.75-.19,2.8-.31,4.55a13.66,13.66,0,0,1,2-2.41,43,43,0,0,1,3.88-2.15c.85,1.71,2.32,3.41,2.35,5.14,0,1.29-1.61,2.92-2.91,3.82a36.41,36.41,0,0,1-5.86,2.72Z" transform="translate(-27.34 -117.65)"/><path d="M176.56,126.12c-6.84,4.57-13.79,9-20.45,13.82-1.55,1.12-2.13,3.57-3.18,5.39s-1.71,3.52-4.45,1.49c-1.61-1.19-4.24-1-7-1.56l5.81-5.22c-1.7-2.79-8.2-2.41-6.5-7.56,1.31-4,4-7.48,6.69-12.18,2.52,6.4,4,11.2-.61,16l4,.48,1.12-6.95,3.29,1,1.33-4h-5.37c-.13-4-.23-6.76,5.06-7.51s10.55-3,15.89-.54c4.17,1.94,8.18,4.22,12.21,6.44a2.1,2.1,0,0,1,.76,1.66c-.22,3.75,1.81,2.22,3.3,1.36s2.81-2.25,4.38-3c3.24-1.54,6.5-3.33,10-4,2.25-.44,5.61-1.06,6.49,3.23.3,1.43,2.87,2.39,5.3,4.26l-7.71,1.54,5.83,2-1,2.66c1.62-.63,3.15-1.64,4.73-1.71s3,.86,6.19,1.88c-6.59,2.89-7.85,7.9-10.16,12.55-4.31,8.66-9.78,16.75-14.88,25-2.26,3.67-4.46,7.47-7.32,10.64a13.56,13.56,0,0,1-7.08,3.86c-3.36.68-4.49,2.15-4.36,5.37a66.69,66.69,0,0,1-.51,7.18c-10-5.94-8.63-14.56-8.18-23.23.43-8.33,2.57-17.06-4.22-24.4-2.78-3-4.59-6.92-7.17-10.94,2.84-1,4.48-1.74,6.19-2.22,2.95-.81,5.09-1.73,6.15-5.42.7-2.46,4.29-4.1,6.59-6.11Z" transform="translate(-27.34 -117.65)"/><path d="M431.24,327.86c2.15,1.41,4,2.66,6.47,4.28,1.38-3.69,2.56-6.85,3.91-10.44,3.89,7.55,8,14.43,10.93,21.8,1.17,2.95.3,7.2-.81,10.47-2,5.91-4.91,11.53-7.62,17.69-4.46,1.84-7.33-.5-10-4.72-4.62-7.39-11.6-10.79-20.3-9.59-3.79.53-7.41,2.19-11.15,3.14a35.93,35.93,0,0,1-5.17.57c-.39-6.38-1.24-11.95-.81-17.42a8.77,8.77,0,0,1,4.79-6.27c5.15-1.77,8.66-5.41,12.74-8.52,1.57-1.19,3.95-1.31,6-1.94a3.42,3.42,0,0,0,1.56-.67c2.89-3.41,6.23-5.29,11.08-3.21C432.42,324.34,431.93,325.79,431.24,327.86Z" transform="translate(-27.34 -117.65)"/><path d="M149.45,193.45l-12.27-10.1c6.13-.19,7.15-3.58,5.4-14.21-4.14-.94-8.52-.87-11.42-2.89-3.31-2.31,2.81-12.52,6.88-11.4,1.71.47,3,2.51,5,4.35-.62,4.22-.22,5.24,5.24,5.34,3.68.07,4,3,5.31,4.73,3.46,4.49,5.77,9.54,3.05,16.06l-4.51-4-1.09.43,1.63,8.36h-3.57Z" transform="translate(-27.34 -117.65)"/><path d="M453.37,320.49l-8.76-4.94-2.38,3.56c-2.87-2.51-5.51-4.77-8.11-7.09-2.41-2.16-7.45-1.08-7.54-7.16l4.84,3.32C442.4,304,447.51,313.07,453.37,320.49Z" transform="translate(-27.34 -117.65)"/><path d="M405.55,292.78c0,2.43.11,3.9,0,5.36-.26,2.79-.19,5.74-1.1,8.33-1.67,4.72-4.69,5.27-8.18,1.63-1.4-1.46-2.18-3.51-3.08-5Z" transform="translate(-27.34 -117.65)"/><path d="M421.5,247c-.3,1.53-.61,3.05-1,4.83-3.07-3.34-2.92-5,.38-7.12,1.47-1,2.95-2,4.47-2.84,4.08-2.41,3.62-6.39,3.53-10.19-.07-3-.36-6-.6-9.68l8.05,3.47-6.11,2.77c.75,4.59,1.58,9.53,2.3,14.48.05.38-.66,1-1.16,1.28-2.95,1.42-5.94,2.75-8.91,4.1Z" transform="translate(-27.34 -117.65)"/><path d="M217.58,219.68c.51-2.62.91-4.69,1.33-6.87l5-.24c.12-2.3.24-4.54.35-6.78l1.74-.34c1.32,2.74,2.56,5.53,4,8.22,1.09,2.08,2.41,4,3.64,6l-8.37,3.61a49.06,49.06,0,0,0,2.06-6.68c.15-.9-.88-2-1.37-3-.87.71-2.42,1.36-2.49,2.14C223.17,219.33,221.22,220.13,217.58,219.68Z" transform="translate(-27.34 -117.65)"/><path d="M303.9,323.63c1.84,4.07,0,15.17-3,17.1a5,5,0,0,1-4.59,0c-1.66-1.23.2-11,1.93-12.38C300.14,326.81,302,325.23,303.9,323.63Z" transform="translate(-27.34 -117.65)"/><path d="M384.12,302.36l5.73,11.23a32.14,32.14,0,0,1,5.52.51,18,18,0,0,1,5.51,2.71c-7.22,1.06-13.42-.22-17.73-6.88-2.93-4.53-6.25-8.81-10-14l9.14,4.62Z" transform="translate(-27.34 -117.65)"/><path d="M119.88,138.21c0,1.9.76,4.6-.19,5.5-1.21,1.15-4,1.49-5.77,1-4.35-1.1-3.32-4.91-2.85-8.24L105,137.86l-.79-1.79,10.23-5.87.84,1.16-2,3.77,3.7,5.53,1.53-2.56Z" transform="translate(-27.34 -117.65)"/><path d="M466.25,395.17c-.5-.32-1.51-.61-1.72-1.19a3.24,3.24,0,0,1,.11-2.71c3-3.28,6.2-6.43,9.44-9.5a2.26,2.26,0,0,1,2.15.19c.48.39.9,1.72.63,2-3.05,3.63-6.23,7.15-9.4,10.67C467.26,394.89,466.86,394.93,466.25,395.17Z" transform="translate(-27.34 -117.65)"/><path d="M101.81,149.7l-1.08,1.15-7.11,2.75c-.27-1.23-.92-2.43-.57-2.91,2-2.7,3.8-5.72,6.41-7.62,1.22-.89,4.09.5,7.3,1Z" transform="translate(-27.34 -117.65)"/><path d="M300.64,145.64c-.36,2.53-.21,3.85-.73,4.8-2,3.7-4.22,7.31-6.5,10.86a2.64,2.64,0,0,1-2.2,1.08,2.39,2.39,0,0,1-1.15-2.08,36.47,36.47,0,0,1,3.67-8C295.23,150.11,297.57,148.52,300.64,145.64Z" transform="translate(-27.34 -117.65)"/><path d="M136.62,140.26c1.23,2.32,2,5.1,3.79,6.85s4.51,2.33,7.24,3.63c-3,3.37-6,2.21-8.47,1.17-5.57-2.33-1.53-7.7-3.66-11.23Z" transform="translate(-27.34 -117.65)"/><path d="M319.7,127.19c1.85,2,6.9-1.71,6.35,3.28h7c.15.58.3,1.17.46,1.75-1.56.74-4.22,2.42-4.51,2.08-2.62-3.07-10.86.94-9.26-7.23Z" transform="translate(-27.34 -117.65)"/><path d="M478.1,382.83c.88-5,1.77-9.95,2.78-15.65.47,2,.48,3.81,1.32,5.09.7,1.07,2.36,1.51,3.89,2.39l-6.93,8.6Z" transform="translate(-27.34 -117.65)"/><path d="M124.23,161.12c-2.47-2.17-4.92-3.26-5.26-4.81-1-4.36,3.94-3.46,5.54-5.72l1.43.44C125.47,153.81,125,156.59,124.23,161.12Z" transform="translate(-27.34 -117.65)"/><path d="M412.41,310.86,408.33,312c-2.2-8.67-1.23-9.79,8.83-8.61l-6,.78C411.62,306.58,412,308.73,412.41,310.86Z" transform="translate(-27.34 -117.65)"/><path d="M295.88,171.41c-3.95.24-6.49-.8-7.21-4.26-.21-1,.88-2.2,1.37-3.32,1,.62,2.38,1,3,1.9C294.11,167.17,294.7,169,295.88,171.41Z" transform="translate(-27.34 -117.65)"/><path d="M381.1,131.27l-4.22,4.6-5.55-6.19,1-1.55Z" transform="translate(-27.34 -117.65)"/><path d="M162,223l-1,3.87-9.44-.83C154.12,221.45,157.67,222.18,162,223Z" transform="translate(-27.34 -117.65)"/><path d="M126.3,146.63c.12-2.8-1.21-6.22,3.12-6.46.7,0,2.2,1.89,2.16,2.86C131.46,145.9,129.91,147.6,126.3,146.63Z" transform="translate(-27.34 -117.65)"/><path d="M127.87,180.5l6,5.36-7.75,2.41,1.88-7.89Z" transform="translate(-27.34 -117.65)"/><path d="M384.12,302.36l-1.8-1.81q-2.31-3.87-4.6-7.74h-.05c5.46-.25,6,5.07,8.84,7.8Z" transform="translate(-27.34 -117.65)"/><path d="M135.51,135c-5.55-1.36-3.33-5-3.91-7.42-.06-.25,1.35-1.28,1.8-1.13.81.28,1.92,1.11,2,1.83A52,52,0,0,1,135.51,135Z" transform="translate(-27.34 -117.65)"/><path d="M435.89,383.5l-.88-6.22h6.54c-1.83,2.62-3.18,4.58-4.54,6.53Z" transform="translate(-27.34 -117.65)"/><path d="M319.76,127.07l-3.38,3.19-1.71-.7c.43-1.82.28-4.56,1.42-5.29,2.72-1.74,2.91,1.24,3.61,2.92Z" transform="translate(-27.34 -117.65)"/><path d="M410.07,274.89c.26,2.81.49,5.34.84,9.09C407,278.93,406.86,276.92,410.07,274.89Z" transform="translate(-27.34 -117.65)"/><path d="M406.38,270c.19-1.62.37-3.23.56-4.85l1.19.07v4.95Z" transform="translate(-27.34 -117.65)"/><path d="M451.26,312.42l5.32-1.88.44,1.23-5.34,1.83Z" transform="translate(-27.34 -117.65)"/><path d="M418.81,318.33l-4.72,2.25-.59-1.24,4.5-2.16Z" transform="translate(-27.34 -117.65)"/><path d="M136.27,135.83l1.83-2.93c.43.58,1,1.08.92,1.29a23.28,23.28,0,0,1-1.49,2.67Z" transform="translate(-27.34 -117.65)"/><path d="M243,243l.29-3.57,1.29.06v3.8Z" transform="translate(-27.34 -117.65)"/><path d="M276.06,230.09l4.82,1.44c-1.77.65-2.57,1.24-3.16,1.07S276.92,231.47,276.06,230.09Z" transform="translate(-27.34 -117.65)"/></g></svg>