<svg preserveAspectRatio="xMidYMid meet" width="48" height="40" viewBox="0 0 48 40" fill="none" xmlns="http://www.w3.org/2000/svg">
<path fill-rule="evenodd" clip-rule="evenodd" d="M47.0438 36.5567L46.321 33.1377L44.2185 34.65L43.5615 36.1622L44.4813 38.9237L46.0582 39.7127L47.0438 36.5567ZM26.3472 3.09022L24.7703 1.51224L23.3248 1.44649L22.8649 0L20.0396 0.788992L19.1198 4.14222L11.6953 7.29819L8.67288 5.58872L9.59275 10.1912L4.20505 9.13918L0 9.99392L0.26283 13.0184L5.1906 14.5964L7.55591 16.6346L10.9068 20.9083L10.2498 28.9955L8.47578 31.4283L9.78985 33.0062L15.966 34.8472L17.2143 33.9925L20.9595 35.8335L24.9017 35.3075L25.2302 32.8747L30.0923 31.5598L36.6626 32.6117L39.6193 30.3763L39.9478 28.601L38.1738 28.075L37.1883 24.9191L38.3052 23.7356L37.2539 22.1576L37.3854 21.0398L36.2027 19.2646L34.6258 19.8563V18.0154L36.9254 15.7141L36.794 14.6621L38.3052 15.0566L39.1594 14.3991L39.4879 11.4404L40.9991 8.67893L36.3341 7.88995L34.7572 6.83795L33.8373 6.90371L33.1146 6.57496L30.2236 4.73396L28.5811 4.99696L26.3472 3.09022Z" fill="white" fill-opacity="0.4"/>
</svg>
