<svg preserveAspectRatio="xMidYMid meet" width="102" height="116" viewBox="0 0 102 116" fill="none" xmlns="http://www.w3.org/2000/svg">
<path fill-rule="evenodd" clip-rule="evenodd" d="M41.7874 22.2233L36.2026 19.3304L32.129 16.7004L30.0265 12.0979L32.7204 12.6897L32.3261 10.5199L30.355 8.3502L29.8294 4.93121L24.8359 0L22.4049 3.55049L18.6598 4.20798L13.075 3.15599L11.8266 4.99697L13.9291 8.67894L15.8345 11.5062L19.1197 13.5444L16.6887 15.9771L17.3457 18.9359L14.7833 23.0781L13.4035 27.3518L10.4469 31.757L6.24183 31.4283L3.02234 35.7678L5.65048 37.6745L6.50466 40.8962L8.80428 43.0002L9.9869 46.6164H2.10248L0 49.3779L4.66493 52.9284L5.91331 54.5721L4.33641 56.0843L9.59269 61.147L12.2208 61.6731L17.2143 59.1746L18.3313 63.0538L18.8569 68.1823L20.4995 73.508L22.8648 81.5952L26.6756 87.3811L27.5298 89.9454L28.8438 95.2053L31.0778 99.216L32.5232 101.189L34.1658 105.396L36.2026 111.248L39.8163 115.193L41.2618 114.01L42.3787 111.117L45.6639 109.933L44.4812 108.552L45.9267 105.396L47.8322 105.199L47.3722 98.0983L48.6206 94.0876L48.1607 90.6028L46.9123 85.2114L47.7007 81.9897L49.3433 81.7924L52.4971 80.2802L54.2054 79.2282L54.0082 77.3214L57.2934 74.56L59.7245 71.93L63.2067 66.9988L68.0688 64.2373L69.6457 61.7388L69.0543 58.5828L73.3907 57.7281L75.8218 57.7938L76.1503 56.2158L75.0991 52.7969L73.3907 49.6409L73.6536 47.1424L71.2226 46.0247L71.7482 44.5124L73.785 42.9344L70.7626 40.699L71.5511 37.8717L74.7048 39.647L76.4789 39.91L77.2673 42.8029L80.8153 43.3947L84.1004 43.3289L86.3344 44.0522L85.2831 47.5369L83.7062 47.7999L82.9835 50.1669L85.2831 52.3366L85.4145 49.7066L86.4001 49.6409L89.3567 56.2816L90.9336 55.2953L90.3423 53.5201L90.9336 52.1394L90.3423 47.7999L93.3646 48.7204L94.3502 45.3014L94.1531 43.2632L95.5329 39.7127L94.9415 37.3457L98.9494 34.4528L101.643 35.176L100.789 32.6118L101.84 31.8228L101.249 30.2448L97.2411 29.653L98.0296 27.8778L95.7299 25.3136L93.6274 27.0231L90.408 26.0368L86.9257 28.6668L84.3633 31.8228L81.6037 32.3488L83.3777 33.6638L83.6406 36.228L80.7496 36.3595L77.6615 36.0965L75.559 36.754L71.9453 35.1103L71.7482 34.3213L70.7626 30.968L68.7915 31.8885L68.8573 33.6638L69.8428 36.3595L69.7771 38.0032L66.7547 38.069L62.2869 37.0827L59.4616 36.6882L56.9649 34.5842L51.9714 33.9925L46.9123 31.6913L43.1015 29.653L39.3564 28.0093L39.9477 24.1301L41.7874 22.2233Z" fill="white" fill-opacity="0.4"/>
</svg>
