<svg preserveAspectRatio="xMidYMid meet" width="98" height="77" viewBox="0 0 98 77" fill="none" xmlns="http://www.w3.org/2000/svg">
<path fill-rule="evenodd" clip-rule="evenodd" d="M61.8927 28.7983L59.5274 27.8778L56.965 26.5628L56.4393 24.5903L56.3079 21.6316L54.731 19.2646L54.074 16.8319L53.0227 13.9389L50.9859 12.2952L48.095 12.3609L44.9412 15.6484L42.3131 14.3991L40.8676 13.1499L40.6048 10.8487L40.0792 8.67894L38.5023 6.83794L37.1225 5.52295L36.2683 4.07648H30.1579L29.6323 5.78595H26.807H19.7767L12.7465 2.89297L8.08153 0.854735L8.73856 0L4.13931 0.460254L0 0.789002L0.131395 4.53671L0.591328 7.88994L1.05124 10.5857L1.57688 13.2157L3.28518 14.3991L5.19058 17.3579L4.53354 19.2646L2.75954 20.7768L1.37976 20.5796L0.985553 20.9083L2.49673 23.3411L4.40212 24.3273L5.05916 25.4451L5.65049 24.8533L7.6873 26.76L9.06708 28.075L9.13279 30.3105L8.34434 33.4007L9.98693 34.4527L12.1552 36.491L14.0606 38.858L14.5205 41.4222H15.1775L16.9515 39.91L17.2143 39.1209L16.2288 37.28L15.1775 35.3732L13.4692 35.2417L13.732 33.0063L13.1407 31.0338L12.4837 29.1928L12.1552 25.3136L10.4469 23.2096L10.0526 21.6973L9.26418 20.6453V17.9496L8.60715 18.0154L8.54146 16.5689L8.08153 16.2401L7.81872 15.3196L6.04471 12.4267L5.32197 10.7172L5.97901 7.56119L6.04471 5.58871L7.22739 3.87922L8.80427 4.99697L10.0526 4.86546L12.0894 6.5092L11.4981 8.08718L11.7609 11.3089L12.7465 14.3991L12.4837 15.7141L13.6006 17.7524L15.1118 19.9878L16.8858 20.3166L17.0829 23.2096L18.6598 25.2478L20.3024 26.234L19.1197 28.864L19.5796 29.8503L22.2735 31.5598L23.5219 34.1897L26.4785 37.4115L28.9752 41.6194L29.8294 43.7234V45.3671L30.7492 47.2739L30.5521 48.7204L29.5009 49.7724L29.698 50.9559L28.4496 51.4161L28.9752 53.4543L30.4207 56.0843L33.903 58.4513L35.1514 60.358L38.6994 61.673L40.6705 61.936L41.4589 63.0538L44.2185 65.0262L48.095 66.9987L50.7231 67.5905L53.8769 69.4972L56.505 70.2862L58.9361 71.404L60.8415 70.9437L63.9952 69.3657L66.0321 69.1027L68.923 70.1547L70.6313 71.5354L74.245 76.0722L74.5078 74.8229L75.0334 73.8367L74.5735 73.0477L76.7417 69.6287H81.4067L81.6695 68.248L81.1439 67.985L80.8153 67.0645L79.567 66.0782L78.3843 64.6975H80.0926L80.3554 62.3305H83.772L87.1229 62.3963L87.1886 61.7388L87.6485 61.5415L88.2398 62.0675L89.8824 59.5033H90.5395L91.3279 59.4375L92.1163 60.4895L93.4304 57.2021L94.2189 55.4268L93.6275 54.7036L94.8102 52.1393L97.1098 49.6409L97.504 47.6026L96.7156 46.7479L94.4817 47.0766L91.3279 46.9451L87.3857 47.9314L84.7576 49.0491L83.9691 50.2326L83.1807 53.7831L81.998 56.2158L79.4356 57.9253L77.0702 58.6486L74.245 59.3718L71.4197 59.7663L68.0688 60.9498L66.8205 59.2403L63.1411 58.1225L61.9584 56.0186L61.4985 53.6516L59.5274 50.5614L59.2646 47.2739L58.4761 45.2356L58.1476 43.0002L58.8703 40.9619L60.053 35.3075L61.2357 32.3488L63.2725 28.6668L61.8927 28.7983Z" fill="white" fill-opacity="0.4"/>
</svg>
