<svg preserveAspectRatio="xMidYMid meet" width="456" height="149" viewBox="0 0 456 149" fill="none" xmlns="http://www.w3.org/2000/svg">
<path fill-rule="evenodd" clip-rule="evenodd" d="M172.735 6.70645L169.778 4.07647L160.842 1.38074L154.666 0L150.592 0.591747L147.11 2.49848L150.921 3.02448L155.257 5.12846L160.514 6.2462L168.07 7.10094L172.735 6.70645ZM55.3223 1.90674L55.9137 1.51224L52.1686 0.920494L50.3289 1.38074L49.4747 2.03823L48.4891 1.24924L45.0726 1.31499L40.999 1.84098L46.0581 1.90674L45.3354 2.76148L48.2264 3.41897L50.5917 2.95873L50.6574 2.49848L52.5628 2.30123L55.3223 1.90674ZM187.058 8.41593L186.072 7.23245L177.859 5.52296L175.888 5.32571L174.443 5.65446L175.231 9.59943L187.058 8.41593ZM197.045 12.5582L191 12.0979L193.234 11.3089L187.846 10.3227L183.838 11.5719L183.181 12.8869L184.167 14.2676L179.633 14.2019L176.151 15.9114L173.326 15.1881L167.215 15.5169L167.412 16.3716L161.368 16.8319L158.148 18.4099L155.389 18.5414L154.6 20.7111L158.214 22.4206L153.155 22.8808L146.913 22.6836L143.102 23.4068L146.256 26.9573L150.79 29.7845L144.482 27.812L139.291 28.0093L135.941 29.3243L138.897 31.8228L135.678 31.1653L134.298 27.8778L131.538 26.0368L130.356 26.1026L132.721 28.5353L129.699 30.8365L135.021 33.598L135.284 37.1485L137.189 39.0552L140.277 39.384L140.54 41.6852L143.431 43.7234L142.182 45.4329L142.511 47.2081L140.08 48.1286L139.751 49.4436L136.269 48.9176L138.569 43.7892L138.24 41.4222L133.838 39.2525L131.341 34.4527L128.91 32.02L126.545 30.968L127.071 28.2065L125.165 26.2998L117.741 25.3793L116.361 26.0368L116.689 29.127L113.864 32.2173L114.653 33.335L117.741 36.0307L117.806 37.7402L121.289 38.069L121.814 38.7922L125.625 40.6989L124.968 42.5399L112.813 38.5292L108.476 37.4115L100.066 36.3595L99.278 37.4772L103.155 39.5154L101.38 41.8824L97.1755 39.7784L93.8903 41.2249L88.8968 41.2907L87.517 42.5399L84.0348 42.1454L85.6774 39.9757L83.5748 39.8442L75.4933 42.8687L70.4998 44.5782L70.7626 46.8794L66.8204 47.6684L64.1923 46.4191L63.4039 44.4467L66.6891 43.9864L64.3237 42.0139L56.3079 40.8304L59.1332 43.0659L58.6075 45.1699L61.6956 47.3396L60.9728 49.8381L57.9505 48.5889L55.3223 48.3916L50.066 51.9421L52.8256 54.6378L50.7231 55.5583L43.2329 53.2571L41.8531 54.6378L44.0213 56.2158L44.1527 57.9911L41.656 57.0706L37.7138 55.9528L36.4654 52.1394L35.8084 50.4299L30.5521 47.7999L32.4575 47.3396L45.6639 50.1011L49.869 49.1149L52.3 47.2081L51.2487 44.8412L48.6206 43.1317L37.0568 39.1209L29.4351 38.2662L24.4417 36.1622L22.0764 37.3457L17.8713 38.7922L15.7688 39.1209L16.0317 41.5537L20.7623 43.9864L18.9226 46.6821L23.1276 50.8244L22.0107 53.9803L25.2302 56.6761L24.6388 59.1088L29.4351 61.673L28.8439 63.5798L26.6756 65.7495L21.485 70.615L24.9673 72.456L22.0107 74.5599L22.602 75.2174L20.8937 77.4529L22.5363 81.0691L21.485 82.3184L23.0619 83.2389L23.719 85.0798L25.0987 87.4468L28.5153 88.4331L29.1724 89.3536L30.6835 88.8933L33.8373 89.8138L34.4943 91.7206L34.1001 92.7726L36.5311 95.3368L37.9766 96.06L37.9109 96.7833L40.1448 97.5065L41.2618 98.5585L40.2105 99.4133L37.6481 99.2817L37.1225 99.6762L38.108 100.991L39.4221 103.555L40.6047 103.687L41.2618 102.766L42.2473 102.964L45.4011 102.635L47.8979 104.87L47.3065 105.725L47.7664 106.974L50.3946 107.106L51.8401 108.881L51.9715 109.67L56.3079 111.117L58.6075 110.459L60.9728 112.366L62.8782 112.3L67.8717 113.615L68.1345 114.864L67.2804 116.968L68.463 119.204L68.266 120.585L65.1778 120.913L63.7324 122.031L63.9952 123.872L66.7547 123.215L67.0176 124.069L62.5497 125.779L64.6523 127.357L62.5497 130.776L60.3158 131.433L63.6009 133.8L67.6746 135.378L72.5367 138.731L72.8652 138.271L75.8219 138.994L80.881 139.652L85.8088 141.559L86.5315 142.348L88.4369 141.69L91.7878 142.545L93.1675 144.189L95.4671 145.109L96.4527 145.241L99.278 147.739L100.855 148.002L101.183 147.016L102.892 145.372L98.0953 140.572L97.8325 137.877L93.956 133.997L96.2556 129.855L99.278 129.132L100.198 126.699L98.3581 126.042L98.2267 123.938L95.4671 121.242L93.1018 121.374L89.6196 118.546L90.7365 115.456L89.6196 114.667L90.9994 110.196L94.9416 112.563L94.4816 109.539L99.8036 105.199L104.731 105.068L112.55 107.895L116.887 109.473L119.712 107.829L124.705 107.698L129.502 109.802L130.027 108.618L134.561 108.815L134.692 106.843L128.516 104.081L130.881 102.175L129.896 101.057L132.458 100.005L129.173 97.3093L130.093 95.9285L141.131 94.5478L142.248 93.5615L149.344 92.1151L151.381 90.4713L157.294 91.3261L160.119 95.4683L162.945 94.482L167.544 95.8628L168.332 98.0325L171.223 97.7695L177.202 94.0218L176.677 95.271L182.13 98.3613L194.022 108.552L194.745 106.383L200.199 108.75L204.272 107.698L206.375 108.421L209.069 110.788L211.631 111.577L213.799 113.286L217.741 112.695L220.567 115.193L221.684 114.864L224.772 114.207L229.108 110.656L232.985 108.75L236.467 109.999L239.818 110.065L242.906 111.971L246.191 112.103L251.382 113.155L252.958 110.328L250.33 107.961L251.184 103.753L255.718 105.396L258.872 105.922L263.208 106.909L265.639 109.933L271.158 111.643L273.721 110.919L277.466 110.393L281.014 110.919L285.285 112.892L288.504 114.93H291.461L295.863 115.588L298.228 114.536L302.039 113.878L304.996 110.985L307.164 111.445L309.726 112.826L313.34 112.497L318.136 114.01L321.027 111.445L319.779 109.67L319.713 105.396L320.502 104.081L318.859 101.912L316.428 100.925L317.545 98.953L320.896 98.2298L324.97 98.0983L330.554 99.2817L334.431 100.794L339.49 104.805L341.987 106.58L344.878 109.013L348.886 113.023L355.39 114.273L361.238 117.231L365.18 121.045H370.108L371.816 119.401L376.35 118.218L377.204 121.9L376.941 123.412L378.781 127.883L379.175 131.828L374.707 131.105L372.802 132.551L375.89 136.036L378.387 140.835L376.744 140.901L377.992 142.939L378.912 143.663L378.649 142.348L381.277 139.389L384.628 141.361L386.731 141.296L389.622 138.929L390.279 136.496L391.659 131.828L392.907 127.094L392.053 124.267L392.71 118.349L389.293 111.84L385.68 107.04L384.825 102.964L381.737 99.6105L373.393 95.2053L369.714 94.9423L369.517 96.9148L365.706 96.06L361.961 93.5615L356.704 93.1013L359.924 83.8306L362.223 76.2694L370.831 75.0859L380.62 75.7434L382.263 73.9024L387.454 74.4284L390.279 77.2557L394.484 76.8612L400.003 75.8092L394.944 73.5079V67.0645L400.923 65.8153L408.873 70.4835L411.238 66.2755L409.136 63.1853L412.224 62.8565L416.495 68.1822L414.918 71.2067L414.392 75.1517L414.589 80.0829L410.844 80.9376L412.684 82.7129L412.618 85.0798L416.823 90.5371L427.336 99.3475L434.234 105.133L437.98 107.961L439.031 104.213L436.074 100.136L439.819 99.1502L436.271 94.6135L439.556 92.5753L436.468 90.8658L434.234 87.5783L436.928 87.4468L431.015 81.7924L426.613 80.8719L424.707 79.2939L423.985 75.6119L421.948 73.0477L426.547 73.5737L427.401 71.93L430.489 73.3764L434.497 70.352L441.987 72.9819L440.871 71.2725L442.185 68.9055L443.17 66.2755L445.207 65.8153L449.478 62.988L455.917 63.777L455.325 62.7908L452.829 61.2785L450.135 60.2265L444.156 57.2021L438.834 55.2296L442.842 55.4926L444.156 53.8488L422.539 39.4497L416.363 37.9375L406.048 36.228L400.857 36.4252L390.87 35.5047L392.053 37.017L397.638 39.2525L395.995 40.4359L386.665 37.28L382.197 37.6745L376.153 36.9512L371.553 37.0827L368.991 37.806L364.26 36.754L360.909 34.2555L356.639 32.809L350.594 32.2173L340.936 32.8747L330.357 30.2448L325.232 28.2723L298.885 26.0368L297.505 27.4833L303.616 30.6393L298.688 30.179L298.031 31.1653L291.658 30.1133L288.373 31.0338L282.262 29.4558L284.233 33.072L278.386 31.6913L271.815 28.9955L271.553 27.549L267.61 25.3793L261.171 23.6698H257.164L251.053 23.0781L254.141 25.6423L242.84 25.1163L240.278 23.6041L231.539 23.0123L228.057 23.5383L227.991 24.3931L224.18 22.2891L222.669 22.8808L217.938 22.0918L214.259 21.6316L214.982 20.6453L219.318 18.8044L220.829 17.8181L219.253 16.1744L215.639 14.9251L208.083 13.4129L200.987 13.3471L199.739 14.1361L197.045 12.5582ZM90.4737 33.335L83.969 30.5078L81.9322 27.6805L84.1005 24.4588L85.9401 21.1713L91.5907 18.0811L98.0296 16.5031L105.454 14.9251L106.308 13.9389L103.549 12.6897L99.2123 13.0842L95.9928 14.2676L88.3055 14.8594L81.6694 16.8976L77.2016 18.6729L78.8442 20.1193L74.5078 23.0123L77.0702 23.4726L73.5222 26.2998L74.5735 28.1408L72.3395 28.864L73.5879 30.705L78.7785 31.6255L80.224 33.1377L89.0283 33.598L90.4737 33.335ZM296.783 17.0949L285.022 15.3854L278.32 15.2539L276.086 15.8456L278.32 18.0811L286.467 20.1851L289.424 19.3961L298.754 19.5276L296.783 17.0949ZM313.34 18.6071L305.653 17.7524L300.265 17.2921L301.382 18.3441L308.149 19.6591L312.617 19.9221L313.34 18.6071ZM305.127 24.8533L303.484 23.9328L298.031 22.6836L295.337 23.0123L294.812 24.3273L295.534 24.4588L301.316 24.8533H305.127ZM411.961 32.9405L408.019 30.5735L407.099 32.02L409.399 33.072L411.961 32.9405ZM9.5927 94.6793L9.19849 93.693L9.32987 92.5753L7.88442 91.9836L4.59925 91.2603L0.459892 92.5753L0 94.2848L3.87652 94.745L9.5927 94.6793ZM397.046 109.013L392.316 104.936L388.965 100.991L384.497 97.1778L381.277 94.5478L380.423 95.0738L383.314 96.9148L382.066 98.7558L386.534 104.213L391.659 108.158L395.864 113.615L397.441 116.64L401.054 121.111L403.551 125.056L406.573 128.475L406.508 125.319L410.778 127.817L408.807 124.924L402.565 120.782L400.134 114.864L405.982 116.179L397.046 109.013Z" fill="white" fill-opacity="0.4"/>
</svg>
