<svg preserveAspectRatio="xMidYMid meet" width="67" height="28" viewBox="0 0 67 28" fill="none" xmlns="http://www.w3.org/2000/svg">
<path fill-rule="evenodd" clip-rule="evenodd" d="M37.0994 4.25793L30.7262 1.36496L25.1414 1.49647L21.3962 2.6142L17.7168 5.24417L11.2122 4.71819L10.1609 7.87415L4.97034 8.00566L1.61948 12.0164L3.98479 13.9889L2.67072 17.2763L5.43031 19.6433L7.86131 23.8513L11.6721 23.7855L15.2202 26.0868L17.5855 25.5608L18.1768 23.7855L21.9219 23.917L24.9442 26.2182L30.2005 25.758L32.2373 23.3253L35.2597 24.3115L37.3622 23.917L36.2453 25.495L37.7564 27.4675L38.5449 26.547L39.3333 25.5608L39.2676 23.1938L40.516 24.0485L44.1297 22.865L46.1008 23.654H48.926L52.6712 22.0103L54.5108 22.1418L58.3873 21.4185L59.7671 20.7611L63.8408 21.3528L65.2205 22.4048L66.7316 21.6815L64.3006 18.2626L64.7605 16.9476L62.8552 12.1479L65.0234 10.9644L63.4465 9.71515L60.687 8.72891V6.69067L59.8328 5.24417L56.1534 3.27169L52.6054 3.46895L48.9917 5.57292L46.035 5.17842L42.2243 5.83592L37.0994 4.25793ZM4.51045 6.88791L5.82452 5.63867L9.83242 5.37568L10.2924 4.38944L7.20428 3.07445L6.61293 1.49647L3.65627 0.970459L0.371094 2.28545L2.14514 3.33744L1.35665 5.90167L0.633924 6.36192L0.699611 7.21666L1.94799 9.12339L4.51045 6.88791Z" fill="white" fill-opacity="0.4"/>
</svg>
