<svg preserveAspectRatio="xMidYMid meet"  width="30" height="36" viewBox="0 0 30 36" fill="none" xmlns="http://www.w3.org/2000/svg">
<path fill-rule="evenodd" clip-rule="evenodd" d="M6.78516 16.7377L3.56567 14.305L1.00325 14.5023L1.52888 16.6062L0.806152 18.7102L2.71153 18.6445L5.01115 19.4992L6.78516 16.7377ZM15.3266 0.76062L11.7129 1.08937L9.34761 0.826374L6.91657 3.98235L5.66819 7.99306L7.11367 9.96555L7.17936 13.779L8.88768 11.938L9.8075 12.99L8.69058 14.7653L9.34761 15.8173L13.0927 16.5405H13.1584L15.1952 19.039L14.6696 21.3402L10.0046 20.9457L9.34761 23.5757L11.0559 25.7454L7.70502 26.9947L8.55916 28.5727L13.4869 29.2301L10.6617 30.0849L5.86529 34.3586L7.50788 35.1476L9.8075 33.6354L12.7642 34.0956L14.9324 32.1889L16.3779 32.9779L21.8313 31.8601L26.102 31.9259L28.9273 29.7561L27.6789 27.7179L29.2558 26.5344L29.5843 23.9702L25.7735 23.1812L24.9193 21.669L23.0139 17.1322L20.9114 16.4748L18.2176 11.8065L17.9548 11.412L14.801 11.149L17.5606 7.66432L18.4147 4.4426H15.1295L12.0414 4.96859L15.3266 0.76062Z" fill="white" fill-opacity="0.4"/>
</svg>
