<svg width="264" height="86" viewBox="0 0 264 86" fill="none" xmlns="http://www.w3.org/2000/svg">
<path d="M114.141 63.5441C113.718 63.4469 113.393 63.5766 113.166 63.8682C112.873 64.257 112.548 64.4839 112.093 64.6783C111.671 64.8727 111.346 65.2616 110.956 65.5532C110.761 65.7152 110.566 65.8448 110.338 65.9744C110.273 66.0392 110.143 66.0393 110.078 66.1041C109.721 66.6225 109.298 66.8818 108.648 66.7197C108.583 66.7197 108.486 66.7845 108.453 66.8493C108.226 67.465 107.543 67.5946 107.121 67.9835C107.023 68.0807 106.893 68.1455 106.796 68.1455C105.983 68.2103 105.528 69.0852 104.683 69.0528C104.358 69.9925 103.286 69.7981 102.701 70.3814C102.181 70.8674 101.596 71.1267 100.881 71.2887C100.133 71.4507 99.4832 71.9692 98.8007 72.3256C98.5732 72.4552 98.3131 72.5848 98.0856 72.6497C97.5331 72.8765 96.9806 73.1033 96.4281 73.2329C96.0056 73.3301 95.5506 73.2977 95.1606 73.3949C94.2831 73.5894 93.4056 73.881 92.5281 74.0754C91.8131 74.205 91.0656 74.2699 90.3181 74.2699C89.0181 74.3023 87.7505 74.2699 86.4505 74.2699C86.0605 74.2699 85.7355 74.1726 85.508 73.8486C85.443 73.7514 85.2805 73.6218 85.183 73.6218C84.403 73.6218 83.9155 73.0709 83.5255 72.52C83.233 72.1312 83.233 71.5479 83.103 71.0619C83.038 70.7378 82.9405 70.3814 82.9405 70.0573C82.908 69.6685 82.973 69.2796 83.0055 68.8908C83.038 68.0807 83.363 67.303 83.2005 66.4929C83.168 66.3957 83.2005 66.2661 83.233 66.1689C83.5255 65.5856 83.623 64.9375 83.948 64.3542C84.273 63.8034 84.5655 63.2201 85.0205 62.7341C85.053 62.7016 85.0855 62.6368 85.0855 62.6044C84.8905 61.8267 85.6705 61.4055 85.8005 60.7574C85.833 60.6278 85.963 60.4982 86.0605 60.3686C86.093 60.3362 86.158 60.3038 86.158 60.2714C86.2555 59.4937 87.133 59.2344 87.393 58.5215C87.523 58.1651 87.848 57.8735 88.1081 57.5494C88.4981 57.0958 88.8881 56.6745 89.2781 56.2533C89.8306 55.6052 90.3831 54.9571 90.9681 54.309C91.0331 54.2442 91.0331 54.1794 91.0981 54.1146C91.4231 53.8554 91.7806 53.6286 92.1056 53.3693C92.5606 53.0453 93.0481 52.7212 93.5031 52.3648C93.9581 52.0084 94.3481 51.5223 94.8356 51.1983C95.3231 50.8418 95.9081 50.5826 96.4606 50.2909H96.4931C96.8831 49.8049 97.4031 49.4809 97.9556 49.1892C97.9881 49.1568 98.0206 49.092 98.0532 49.092C98.9632 49.0596 99.2557 47.8931 100.231 47.9903C100.361 47.9903 100.556 47.8931 100.621 47.7634C100.881 47.407 101.271 47.3098 101.693 47.2126C101.856 47.1802 102.051 47.0506 102.148 46.9209C102.376 46.5969 102.636 46.4997 102.993 46.5321C103.448 46.5645 103.773 46.4673 104.098 46.0784C104.326 45.8192 104.781 45.7868 105.138 45.6572C105.333 45.5924 105.561 45.56 105.756 45.4952C106.243 45.3331 106.731 45.1387 107.218 44.9767C107.446 44.8795 107.673 44.7175 107.933 44.6527C108.421 44.523 108.908 44.361 109.428 44.3286C110.013 44.2962 110.501 44.1666 110.988 43.8426C111.216 43.6805 111.573 43.6481 111.866 43.6157C112.451 43.5185 113.036 43.5509 113.588 43.3889C113.946 43.2593 114.206 42.8704 114.498 42.6112C115.116 42.1252 115.733 41.6715 116.351 41.2178C116.708 40.9586 117.001 40.667 117.358 40.3753C118.398 39.5328 119.568 38.82 120.511 37.8154C120.868 37.4266 121.421 37.1674 121.843 36.8109C122.363 36.3897 122.883 35.936 123.403 35.4824C123.663 35.2555 124.021 35.1259 124.216 34.8667C124.801 34.0566 125.776 33.7325 126.491 33.0521C126.783 32.7604 127.108 32.5336 127.401 32.242C127.888 31.7883 128.343 31.3022 128.831 30.881C129.773 30.0709 130.716 29.2932 131.658 28.4831C132.016 28.1591 132.406 27.8674 132.763 27.511C133.608 26.6685 134.421 25.7936 135.266 24.9511C136.176 24.0438 137.086 23.1365 137.996 22.2291C138.126 22.0995 138.224 21.9375 138.354 21.7755C138.549 21.5163 138.744 21.257 138.939 21.0302C138.971 20.9978 139.004 20.9978 139.004 20.9654C139.524 20.2525 140.044 19.5396 140.564 18.7943C140.661 18.6647 140.661 18.4703 140.726 18.3083C140.791 18.1463 140.889 17.9194 141.019 17.9194C141.506 17.8546 141.506 17.5306 141.506 17.1741C141.506 16.9149 141.506 16.6233 141.636 16.4288C142.059 15.7484 141.864 15.1003 141.506 14.5494C141.214 14.0958 140.759 13.8041 140.336 13.4477C140.239 13.3829 140.044 13.3505 140.011 13.2857C139.686 12.67 139.101 12.7672 138.549 12.6376C138.126 12.5404 137.736 12.346 137.314 12.2163C136.826 12.0867 136.371 11.9247 135.884 11.8599C135.201 11.7627 134.453 11.8599 133.771 11.6331C132.958 11.3738 132.178 11.309 131.366 11.309C130.358 11.309 129.351 11.309 128.343 11.2766C127.011 11.2442 125.743 11.5359 124.443 11.8275C124.313 11.8599 124.151 11.8599 124.021 11.8599C123.143 11.8275 122.363 12.0543 121.551 12.4108C121.258 12.5404 120.933 12.6376 120.608 12.6376C119.796 12.6052 119.146 12.9616 118.463 13.2533C118.236 13.3505 117.976 13.4801 117.716 13.5125C117.228 13.5773 116.708 13.6097 116.351 14.031C116.286 14.0958 116.123 14.0958 115.993 14.1282C115.441 14.2254 114.888 14.2254 114.498 14.7114C114.433 14.7762 114.303 14.8087 114.206 14.8411C113.718 14.9707 113.231 15.0355 112.906 15.5215C112.808 15.6512 112.516 15.6836 112.321 15.7484C111.801 15.9104 111.281 16.0076 110.793 16.202C110.403 16.364 110.078 16.3316 109.916 15.9428C109.786 15.5863 109.721 15.1975 109.721 14.8411C109.721 14.4522 110.013 14.2578 110.436 14.2578C110.891 14.2578 111.313 14.193 111.671 13.9013C111.866 13.7393 112.158 13.7393 112.353 13.6097C112.613 13.4801 112.808 13.2533 113.068 13.1236C113.328 12.994 113.621 12.832 113.913 12.832C114.303 12.7996 114.628 12.7348 114.921 12.4108C115.116 12.2163 115.473 12.0867 115.733 12.0543C116.416 12.0219 117.033 11.7303 117.683 11.6007C118.983 11.309 120.153 10.4665 121.551 10.5313C122.038 10.5637 122.526 10.2073 123.013 10.0777C123.631 9.94806 124.281 9.85085 124.898 9.78604C125.873 9.68883 126.848 9.62402 127.823 9.62402C128.766 9.62402 129.676 9.68883 130.618 9.72123C131.756 9.75364 132.861 9.78604 133.998 9.81845C134.453 9.81845 134.941 9.85085 135.396 9.91566C135.559 9.94806 135.754 10.0777 135.851 10.2073C136.079 10.5313 136.404 10.5961 136.761 10.5961C137.249 10.5637 137.736 10.5313 138.224 10.5961C138.614 10.6609 139.004 10.823 139.394 10.9526C139.556 11.0174 139.686 11.147 139.849 11.1794C140.629 11.3738 141.181 11.8923 141.734 12.4432C141.864 12.5728 141.994 12.67 142.124 12.7672C142.221 12.8644 142.416 12.8968 142.449 13.0264C142.839 13.8365 143.489 14.5818 143.456 15.5539C143.456 15.9104 143.456 16.2668 143.424 16.6233C143.391 16.8501 143.294 17.1093 143.196 17.3362C143.131 17.4982 143.001 17.6602 142.936 17.8222C142.611 18.7943 142.124 19.6692 141.441 20.4469C141.051 20.9006 140.791 21.4839 140.466 22.0023C140.239 22.3588 139.979 22.6828 139.686 23.0068C139.329 23.3957 138.906 23.7521 138.516 24.1086C138.191 24.4326 137.899 24.7891 137.606 25.1131C136.924 25.826 136.209 26.5065 135.494 27.1869C134.941 27.7378 134.453 28.3211 133.901 28.872C133.218 29.52 132.471 30.1357 131.788 30.7838C130.846 31.6587 129.968 32.566 129.026 33.4409C128.961 33.5057 128.896 33.6029 128.798 33.6029C127.888 33.7001 127.498 34.4778 126.913 34.9639C126.231 35.5148 125.581 36.098 124.898 36.6489C124.216 37.1998 123.501 37.7506 122.818 38.3015C122.136 38.8848 121.486 39.468 120.836 40.0513C120.023 40.7642 119.243 41.5095 118.236 41.9955C117.878 42.19 117.586 42.5788 117.326 42.9029C117.261 42.9677 117.358 43.2593 117.423 43.2917C117.553 43.3565 117.813 43.3565 117.878 43.2593C118.171 42.7732 118.626 42.8704 119.016 43.0325C119.471 43.2269 119.926 43.1945 120.413 43.0973C120.608 43.0649 120.868 43.0325 120.998 43.1297C121.486 43.4537 122.038 43.4537 122.591 43.4861C123.176 43.5185 123.793 43.5185 124.378 43.5509C124.931 43.5833 125.451 43.713 125.938 44.0046C126.263 44.199 126.718 44.2638 127.108 44.3286C127.271 44.361 127.498 44.199 127.661 44.0694C127.888 43.875 128.083 43.6481 128.311 43.4213C128.636 43.1297 128.993 42.8704 129.253 42.5464C130.358 41.3151 131.658 40.2457 132.958 39.1764C133.673 38.5931 134.258 37.8802 134.909 37.2322C134.974 37.1674 135.071 37.0701 135.136 37.0053C135.624 36.6489 136.176 36.3249 136.631 35.936C136.891 35.7416 136.989 35.3851 137.216 35.1583C137.801 34.6399 138.419 34.1538 138.971 33.6677C139.589 33.1169 140.206 32.5336 140.824 31.9827C140.954 31.8855 141.051 31.7235 141.181 31.6911C141.994 31.4643 142.514 30.8486 143.034 30.2329C143.294 29.9089 143.651 29.5848 144.009 29.4552C144.594 29.2284 145.016 28.8395 145.439 28.4507C146.446 27.511 147.681 26.9277 148.754 26.1176C148.851 26.0528 148.916 25.9232 148.981 25.826C149.046 25.7288 149.111 25.5668 149.209 25.5343C149.761 25.4371 150.216 25.0807 150.639 24.7567C150.964 24.4974 151.321 24.3354 151.679 24.1734C151.776 24.1086 151.906 24.0762 152.036 24.0438C152.394 23.979 152.686 23.8817 152.914 23.5577C153.044 23.3957 153.336 23.3633 153.564 23.2337C153.824 23.1041 154.051 22.942 154.279 22.78C154.376 22.7152 154.409 22.5856 154.506 22.5532C154.994 22.3912 155.416 22.1643 155.839 21.8403C156.164 21.5487 156.619 21.3866 157.009 21.1922C157.171 21.095 157.399 21.095 157.594 20.9978C157.821 20.9006 158.114 20.8034 158.276 20.6414C158.471 20.3821 158.666 20.2201 158.991 20.1877C159.446 20.1553 159.804 19.7665 160.194 19.6692C160.779 19.5396 161.201 19.2156 161.689 18.9564C162.436 18.5675 163.216 18.2759 163.996 17.9842C164.159 17.9194 164.321 17.9194 164.516 17.9194C164.874 17.9194 165.134 17.887 165.394 17.563C165.524 17.401 165.816 17.3038 166.076 17.2713C166.889 17.2065 167.734 17.1417 168.579 17.1417C168.806 17.1417 169.066 17.3362 169.229 17.5306C169.424 17.7574 169.521 18.049 169.651 18.3083C169.814 18.6323 169.359 19.2804 168.904 19.3128C168.741 19.3452 168.546 19.3452 168.384 19.2804C167.539 18.9239 166.759 19.2804 165.946 19.3776C165.686 19.41 165.491 19.6044 165.231 19.7016C164.809 19.8637 164.386 20.0581 163.964 20.1229C163.541 20.1877 163.216 20.2849 162.924 20.5765C162.761 20.7386 162.469 20.8034 162.241 20.9006C162.144 20.933 162.014 20.9006 161.916 20.9654C161.201 21.3218 160.519 21.7107 159.804 22.0023C158.959 22.3264 158.211 22.78 157.464 23.2013C157.171 23.3633 156.911 23.5253 156.619 23.6549C156.586 23.6873 156.554 23.7197 156.521 23.7521C155.904 24.0438 155.286 24.2706 154.701 24.5946C154.084 24.9511 153.466 25.3723 152.881 25.7612C152.719 25.8584 152.589 26.0204 152.426 26.1176C152.069 26.312 151.744 26.5065 151.386 26.6685C150.541 27.0249 149.924 27.6406 149.241 28.1915C148.851 28.5155 148.331 28.7099 147.909 29.0016C147.031 29.5848 146.121 30.0709 145.374 30.7838C144.789 31.3347 144.171 31.7559 143.521 32.242C143.034 32.5984 142.644 33.0521 142.189 33.4409C142.124 33.5057 142.059 33.5381 141.994 33.5705C140.921 34.089 140.076 34.8991 139.264 35.7092C138.841 36.1304 138.321 36.4545 137.866 36.8757C137.639 37.1025 137.444 37.3618 137.281 37.6534C137.249 37.7182 137.314 37.9126 137.379 38.0099C137.931 38.7227 137.931 39.144 137.379 39.8245C136.956 40.3429 136.599 40.9586 136.176 41.4771C135.559 42.2224 134.941 42.9353 134.291 43.6805C134.226 43.7454 134.161 43.7778 134.128 43.8426C133.413 44.6851 132.731 45.56 132.048 46.4025C131.788 46.6941 131.853 46.9533 132.146 47.1802C132.698 47.6338 133.251 48.0875 133.738 48.6059C134.226 49.092 134.714 49.6105 135.039 50.1937C135.396 50.8094 136.046 51.2955 136.176 52.0408C136.209 52.138 136.274 52.3 136.371 52.3648C136.761 52.624 136.826 53.0453 136.956 53.4341C137.021 53.6285 137.249 53.8554 137.444 53.8878C137.899 53.985 138.354 53.9202 138.744 53.5313C138.971 53.3045 139.361 53.2721 139.686 53.1425C139.881 53.0777 140.076 53.0129 140.271 52.9481C140.596 52.786 140.954 52.6564 141.279 52.4944C141.409 52.4296 141.604 52.4296 141.669 52.3324C141.994 51.8463 142.514 51.8787 143.001 51.7491C143.261 51.6843 143.456 51.4251 143.716 51.2955C143.976 51.1659 144.236 51.0362 144.529 50.939C144.626 50.9066 144.789 50.9066 144.886 50.8742C145.666 50.453 146.414 49.9993 147.194 49.6105C147.844 49.2864 148.526 49.0596 149.176 48.768C149.339 48.7032 149.501 48.5735 149.664 48.4763C150.021 48.2819 150.379 48.1199 150.736 47.9255C150.931 47.8282 151.094 47.6986 151.289 47.6014C151.581 47.4718 151.874 47.3746 152.134 47.245C152.329 47.1478 152.491 47.0506 152.686 46.9209C152.946 46.7913 153.174 46.6293 153.434 46.4997C153.694 46.3377 153.986 46.208 154.246 46.046C154.311 46.0136 154.376 45.8516 154.441 45.8516C155.124 45.722 155.644 45.2359 156.229 44.9443C156.521 44.8147 156.781 44.6527 157.041 44.523C157.074 44.4906 157.106 44.4258 157.139 44.4258C158.244 44.361 158.991 43.1621 160.226 43.4537C160.421 43.4861 160.746 43.4213 160.909 43.2917C161.429 42.838 162.014 42.7084 162.664 42.676C163.574 42.6112 164.516 42.352 165.426 42.7084C165.621 42.8056 165.816 42.9353 166.011 43.0325C166.174 43.1297 166.304 43.2917 166.466 43.3565C166.921 43.5185 167.116 43.8102 167.084 44.2962C167.084 44.4258 167.084 44.6203 167.149 44.6851C167.506 45.0739 167.344 45.4952 167.246 45.9164C167.149 46.3053 167.149 46.6941 167.051 47.0506C166.921 47.5042 166.759 47.9255 166.596 48.3467C166.531 48.4763 166.401 48.5735 166.369 48.7032C166.109 49.4484 165.849 50.2261 165.621 51.0038C165.524 51.3279 165.426 51.6195 165.069 51.7491C164.939 51.8139 164.841 52.0732 164.841 52.2352C164.841 52.7212 164.841 53.1749 164.354 53.4665C164.321 53.4989 164.289 53.5313 164.256 53.5637C164.029 54.5683 163.379 55.4432 163.346 56.4801C163.346 56.6745 163.281 56.8365 163.281 57.031C163.249 57.355 163.281 57.6142 163.639 57.7763C163.769 57.8411 163.834 57.9707 163.964 58.0355C164.256 58.1975 164.516 58.4243 164.809 58.4243C165.979 58.4567 167.181 58.4243 168.351 58.3919C168.546 58.3919 168.741 58.3271 168.936 58.2623C169.424 58.1003 169.879 57.9059 170.366 57.7438C170.789 57.5818 171.179 57.355 171.601 57.2578C171.991 57.1282 172.381 57.1282 172.771 57.031C173.031 56.9662 173.259 56.8365 173.486 56.7069C173.811 56.5449 174.136 56.4153 174.494 56.2533C174.786 56.1236 175.046 56.0588 175.339 55.9292C175.664 55.7996 175.956 55.6052 176.249 55.4756C176.281 55.4756 176.314 55.4756 176.346 55.4432C176.899 55.0543 177.484 54.6979 178.199 54.6979C178.296 54.6979 178.394 54.5683 178.459 54.4711C178.751 54.1146 179.109 53.985 179.564 53.9526C179.759 53.9526 179.954 53.8554 180.149 53.7582C180.571 53.5637 180.994 53.3693 181.416 53.1749C181.644 53.0777 181.871 52.9805 182.099 52.8833C182.261 52.8185 182.424 52.6888 182.586 52.5916C182.944 52.3972 183.301 52.138 183.659 51.9759C184.374 51.6195 185.089 51.2955 185.804 51.0362C186.097 50.939 186.422 50.9066 186.584 50.5826C186.584 50.5502 186.617 50.5178 186.649 50.5178C187.332 50.1937 188.047 49.8373 188.729 49.5133C188.859 49.4484 189.054 49.4808 189.119 49.3836C189.444 48.8976 189.964 48.8328 190.452 48.6707C190.614 48.6383 190.744 48.5411 190.874 48.4439C191.232 48.1199 191.622 47.9579 192.109 47.9255C192.207 47.9255 192.337 47.9255 192.434 47.8931C192.889 47.6014 193.344 47.2774 193.799 46.9533C193.962 46.8561 194.092 46.7265 194.254 46.6617C195.132 46.3377 195.977 45.9164 196.887 45.6896C197.732 45.4628 198.317 44.7499 199.097 44.523C199.942 44.2638 200.722 43.8102 201.567 43.6157C202.412 43.4213 203.289 43.3241 204.102 42.9029C205.207 42.352 206.377 41.9631 207.612 41.8011C207.807 41.7687 207.969 41.5743 208.197 41.5095C208.457 41.4123 208.717 41.2827 208.977 41.2503C209.789 41.1854 210.602 41.1854 211.284 40.6994C211.317 40.667 211.414 40.6346 211.447 40.6346C212.389 40.5374 213.332 40.4726 214.242 40.3753C214.437 40.3429 214.664 40.3429 214.827 40.2457C215.509 39.7921 216.257 39.7273 217.037 39.6949C217.557 39.6625 218.077 39.5328 218.597 39.468C219.149 39.3708 219.702 39.2736 220.254 39.2088C220.449 39.1764 220.644 39.306 220.807 39.4032C221.164 39.6301 221.489 39.6301 221.814 39.3708C222.139 39.0792 222.497 39.0468 222.919 39.0468C223.634 39.0468 224.349 38.982 225.097 38.982C225.779 38.982 226.494 39.0144 227.177 39.0144C229.484 39.0144 231.792 39.0468 234.099 39.0468C234.229 39.0468 234.359 39.0144 234.457 39.0792C235.042 39.3708 235.627 39.1116 236.212 39.1116C236.894 39.1116 237.577 39.2088 238.26 39.306C238.585 39.3384 238.942 39.4356 239.267 39.5004C239.462 39.5328 239.69 39.5977 239.852 39.5004C240.275 39.306 240.665 39.4032 241.055 39.5652C241.38 39.6949 241.77 39.7273 242.095 39.6625C242.485 39.5977 242.81 39.6625 243.167 39.7921C243.362 39.8893 243.687 39.9217 243.882 39.8569C244.565 39.5652 245.182 39.6949 245.832 39.9865C246.027 40.0837 246.32 40.0513 246.547 40.0837C246.775 40.1161 247.002 40.1161 247.23 40.1485C248.497 40.3105 249.732 40.505 251 40.667C251.325 40.6994 251.552 40.7318 251.747 41.0234C251.845 41.153 252.105 41.2502 252.3 41.2827C253.08 41.3475 253.827 41.3151 254.607 41.3799C254.932 41.4123 255.257 41.6715 255.582 41.8011C255.94 41.9307 256.297 42.0604 256.655 42.0604C257.987 42.0279 259.287 42.352 260.522 42.8056C261.497 43.1945 262.44 43.4537 263.48 43.4537C263.805 43.4537 264 43.6805 264 44.0046C264 44.3286 263.74 44.361 263.48 44.3286C262.602 44.2962 261.757 44.2638 260.88 44.2314C260.815 44.2314 260.717 44.2314 260.652 44.199C259.157 43.3241 257.467 43.5509 255.842 43.3565C255.29 43.2917 254.737 43.2917 254.185 43.0001C253.632 42.7084 252.95 42.7084 252.3 42.6112C251.52 42.4816 250.74 42.4816 249.96 42.3196C248.595 42.0603 247.23 41.8983 245.865 41.8659C245.28 41.8659 244.662 41.7687 244.077 41.7039C242.875 41.5419 241.672 41.3799 240.502 41.2503C239.722 41.1854 238.942 41.2178 238.162 41.1854C235.074 41.153 231.987 41.0882 228.899 41.0558C227.762 41.0558 226.592 41.0882 225.454 41.0882C223.439 41.1206 221.424 41.153 219.377 41.1854C218.694 41.1854 218.012 41.2503 217.362 41.5095C216.744 41.7363 216.062 41.8335 215.379 41.8659C214.274 41.8983 213.299 42.3844 212.227 42.5464C211.934 42.5788 211.642 42.5788 211.349 42.6436C211.024 42.7084 210.699 42.9029 210.342 42.9677C209.724 43.1297 209.107 43.2917 208.489 43.3889C207.839 43.4537 207.222 43.4213 206.702 43.9398C206.474 44.1666 205.987 44.1666 205.597 44.2314C205.239 44.2962 204.947 44.3286 204.654 44.6203C204.459 44.7823 204.167 44.8471 203.874 44.8795C203.452 44.9119 203.062 44.9119 202.737 45.3007C202.607 45.4952 202.217 45.56 201.957 45.56C201.437 45.56 201.014 45.7544 200.592 46.046C200.462 46.1432 200.299 46.2405 200.137 46.3053C199.292 46.5645 198.317 46.6941 197.569 47.1478C196.464 47.8282 195.067 47.7634 194.059 48.6383C193.897 48.768 193.734 48.8976 193.572 48.9948C193.214 49.1892 192.857 49.3512 192.499 49.5457C192.207 49.7077 191.914 49.9021 191.589 50.0317C190.777 50.3558 189.964 50.6798 189.152 51.0038C189.054 51.0362 188.957 51.101 188.892 51.1983C188.664 51.6519 188.242 51.7167 187.787 51.7491C187.657 51.7491 187.494 51.7815 187.397 51.8463C186.746 52.2676 186.129 52.6888 185.479 53.1425C185.382 53.2073 185.284 53.2073 185.154 53.2073C184.796 53.2721 184.439 53.3369 184.146 53.6286C183.984 53.823 183.626 53.823 183.366 53.9202C183.074 54.0498 182.814 54.2118 182.521 54.3738C182.391 54.4386 182.294 54.6007 182.196 54.6007C181.611 54.6007 181.221 55.0543 180.734 55.2163C179.921 55.4756 179.336 56.2857 178.361 56.1885C178.264 56.1885 178.166 56.2857 178.101 56.3505C177.711 56.6745 177.321 56.9662 176.769 56.9662C176.574 56.9662 176.411 57.1282 176.216 57.2254C175.501 57.5818 174.786 57.9383 174.071 58.2623C173.844 58.3595 173.551 58.3271 173.291 58.3271C172.836 58.3595 172.446 58.4567 172.154 58.878C172.024 59.04 171.731 59.1372 171.471 59.1696C171.081 59.202 170.691 59.1048 170.464 59.5585C170.399 59.6881 170.074 59.7205 169.879 59.7853C168.969 59.9473 168.026 59.7529 167.181 60.1741C167.149 60.2065 167.084 60.2065 167.051 60.2065C166.109 59.8825 165.134 59.8825 164.126 59.8825C163.346 59.8825 162.859 59.2992 162.339 58.8132C162.176 58.6512 161.981 58.4891 161.851 58.3271C161.721 58.1003 161.526 57.8087 161.526 57.5494C161.526 56.5449 161.559 55.5404 161.591 54.5359C161.591 54.3738 161.656 54.2118 161.754 54.1146C162.176 53.7258 162.274 53.2397 162.436 52.7212C162.664 52.0084 163.054 51.3279 163.379 50.6474C163.509 50.3558 163.606 50.0641 163.736 49.8049C163.866 49.5781 164.029 49.3512 164.126 49.1244C164.289 48.8004 164.484 48.5087 164.549 48.1847C164.646 47.6986 164.679 47.2774 165.036 46.8561C165.524 46.3377 165.556 45.1387 165.134 44.5555C165.004 44.3934 164.744 44.2638 164.549 44.2638C163.639 44.2314 162.729 44.2314 161.884 44.6851C161.461 44.9119 160.909 44.9119 160.421 45.0091C160.291 45.0415 160.129 45.0415 160.064 45.1063C159.771 45.56 159.284 45.56 158.829 45.6896C158.569 45.7544 158.341 45.9812 158.081 46.1108C157.821 46.2405 157.561 46.3701 157.301 46.4673C157.041 46.5645 156.781 46.6617 156.554 46.7913C156.294 46.9209 156.034 47.083 155.806 47.245C155.546 47.407 155.286 47.5366 155.026 47.6662C154.864 47.7634 154.701 47.8283 154.539 47.8931C154.279 48.0227 154.051 48.1523 153.824 48.2819C153.694 48.3467 153.596 48.4763 153.466 48.5087C152.979 48.6707 152.459 48.768 152.166 49.254C152.166 49.2864 152.101 49.2864 152.101 49.3188C151.386 49.6105 150.606 49.8049 149.924 50.1613C149.339 50.4854 148.786 50.8742 148.104 50.9714C148.039 50.9714 147.941 51.1334 147.909 51.2307C147.714 51.5547 147.421 51.6843 147.031 51.6843C146.901 51.6843 146.771 51.6843 146.674 51.7167C146.024 52.0732 145.374 52.4296 144.724 52.786C144.464 52.9157 144.171 53.0129 143.879 53.0777C143.489 53.1425 143.099 53.2073 142.806 53.5637C142.676 53.7258 142.384 53.7582 142.189 53.8554C141.799 54.0498 141.409 54.2442 141.019 54.4386C140.921 54.5035 140.824 54.6331 140.759 54.6007C139.849 54.4386 139.296 55.2163 138.516 55.4108C138.094 55.508 137.964 55.7996 137.996 56.2533C138.061 57.5494 138.061 58.8132 138.061 60.1093C138.061 60.9194 138.094 61.6971 138.029 62.5072C137.996 62.9285 137.834 63.3497 137.704 63.771C137.574 64.2246 137.476 64.6783 137.314 65.0995C137.216 65.3912 137.086 65.6828 136.989 65.9744C136.891 66.2661 136.696 66.5253 136.664 66.8169C136.631 67.3678 136.631 67.8863 136.079 68.2751C135.916 68.3723 135.884 68.7288 135.884 68.9556C135.884 69.4093 135.786 69.7657 135.364 69.9925C135.299 70.0249 135.234 70.0897 135.201 70.1546C134.909 70.835 134.681 71.5155 134.388 72.196C134.258 72.4876 134.096 72.7145 133.933 72.9737C133.836 73.1357 133.771 73.2977 133.641 73.4598C133.511 73.6542 133.348 73.8486 133.218 74.043C133.153 74.1402 133.023 74.1726 132.991 74.2699C132.438 75.1448 131.886 76.0197 131.333 76.927C131.301 76.9594 131.301 77.0242 131.268 77.0566C130.553 77.5426 130.326 78.4175 129.708 79.0008C129.253 79.4221 128.766 79.8109 128.311 80.2322C128.018 80.4914 127.758 80.783 127.466 81.0423C127.141 81.3339 126.816 81.5931 126.491 81.8524C126.458 81.8848 126.393 81.9172 126.393 81.9496C125.938 82.6625 125.256 83.0513 124.541 83.4402C124.183 83.6346 123.793 83.8614 123.436 84.0882C123.338 84.153 123.208 84.2503 123.176 84.3475C122.981 84.7039 122.688 84.8011 122.298 84.8011C122.136 84.8011 121.908 84.8983 121.811 85.0603C121.551 85.4492 121.193 85.514 120.771 85.5788C120.348 85.6436 119.926 85.7732 119.503 85.8704C119.276 85.9353 119.016 86.0001 118.788 86.0001C117.683 86.0001 116.643 85.7408 115.636 85.4168C114.856 85.1576 114.108 84.8011 113.491 84.2179C113.101 83.8614 112.581 83.6022 112.191 83.2133C111.801 82.7921 111.508 82.2736 111.183 81.82C111.118 81.7227 111.118 81.5283 111.021 81.4311C110.241 80.7506 110.501 79.8109 110.436 78.9684C110.436 78.8064 110.436 78.6444 110.403 78.5148C110.338 77.7695 110.143 77.0242 110.241 76.3113C110.501 74.6587 110.241 72.9089 111.118 71.3535C111.248 71.1591 111.216 70.8674 111.313 70.6406C111.411 70.349 111.573 70.0897 111.671 69.7981C111.768 69.4741 111.833 69.1176 111.963 68.7612C112.061 68.5019 112.191 68.2427 112.321 67.9835C112.451 67.6919 112.613 67.4002 112.743 67.1086C112.776 67.0438 112.711 66.979 112.743 66.9142C113.263 66.2013 113.361 65.2616 113.946 64.6135C114.271 64.2246 114.271 63.9006 114.141 63.5441ZM88.1081 73.2653C88.1081 73.2977 88.1081 73.3625 88.1406 73.3949C89.4081 73.2329 90.6756 73.0385 91.9431 72.8441C92.9181 72.7145 93.8606 72.5848 94.7706 72.1312C94.8681 72.0664 94.9656 72.0664 95.0956 72.0664C96.3306 72.0016 97.3706 71.2887 98.5407 70.9322C99.5482 70.6406 100.491 70.0897 101.433 69.6361C101.498 69.6037 101.563 69.6037 101.596 69.5389C101.856 69.0204 102.343 68.9232 102.831 68.826C102.993 68.7936 103.123 68.664 103.253 68.5668C103.838 68.2103 104.391 67.8215 104.976 67.465C105.496 67.141 106.048 66.8169 106.601 66.4605C106.633 66.4281 106.666 66.3957 106.698 66.3633C106.926 66.2013 107.186 66.0717 107.446 65.9096C107.543 65.8448 107.673 65.8124 107.771 65.7152C108.421 65.1968 109.006 64.5487 109.851 64.3218C109.916 64.3218 109.981 64.257 110.013 64.2246C110.371 63.5442 111.183 63.4793 111.703 62.9933C112.126 62.6044 112.646 62.3452 113.101 61.9888C113.556 61.6323 113.946 61.1787 114.401 60.7898C115.083 60.2065 115.798 59.6233 116.481 59.04C116.708 58.8456 116.903 58.5863 117.033 58.2947C117.358 57.679 118.041 57.3226 118.171 56.5773C118.171 56.5449 118.203 56.5449 118.236 56.5125C118.626 55.994 119.016 55.508 119.341 54.9895C119.666 54.5035 119.926 53.985 120.251 53.4665C120.316 53.3693 120.446 53.3045 120.543 53.2397C120.641 53.1425 120.771 53.0453 120.868 52.9157C121.128 52.4944 121.323 52.0732 121.583 51.6519C122.168 50.7446 122.753 49.8049 123.338 48.8976C123.403 48.8004 123.501 48.768 123.566 48.6707C123.696 48.5087 123.826 48.3143 123.956 48.1523C124.443 47.6014 124.606 46.7589 125.321 46.3701C125.646 46.1756 125.613 45.7868 125.288 45.6248C124.833 45.4304 124.313 45.2035 123.826 45.1387C121.973 44.9119 120.153 44.8147 118.301 44.9443C117.196 45.0091 116.058 45.0091 114.953 45.0415C114.791 45.0415 114.628 45.0739 114.498 45.1387C113.848 45.722 113.166 46.2729 112.353 46.5969C112.256 46.6293 112.191 46.7265 112.126 46.8237C111.931 47.0182 111.736 47.2126 111.541 47.407C111.021 47.7958 110.501 48.1847 109.948 48.5735C109.526 48.8328 109.006 48.9624 108.811 49.4808C108.811 49.5133 108.746 49.5457 108.681 49.5457C107.738 50.1289 106.796 50.6474 105.886 51.2631C105.138 51.7491 104.488 52.3324 103.741 52.8509C103.156 53.2721 102.538 53.661 101.953 54.0498C101.401 54.3738 100.848 54.6979 100.328 55.0219C99.9707 55.2487 99.6132 55.508 99.2557 55.7672C98.7357 56.1885 98.2481 56.7069 97.6631 56.9986C96.7206 57.4522 96.0706 58.3271 95.0631 58.6188C94.9331 58.6512 94.8356 58.8456 94.7056 58.9752C94.6081 59.0724 94.5431 59.202 94.4131 59.2992C93.9256 59.6233 93.4381 59.9149 92.9506 60.2065C92.8856 60.2714 92.8206 60.3362 92.7556 60.401C92.0731 61.0166 91.3906 61.6323 90.7081 62.2156C90.3181 62.5396 89.8631 62.7989 89.4731 63.1229C88.7581 63.6738 88.043 64.1922 87.393 64.7755C86.5805 65.4884 85.833 66.2985 85.0205 67.0114C84.468 67.5298 83.9805 68.0483 84.1755 68.8908C84.208 68.988 84.1755 69.0852 84.1755 69.1824C84.1755 69.9601 84.143 70.7378 84.208 71.5155C84.273 72.1636 85.703 73.2329 86.418 73.2329C86.938 73.2977 87.523 73.2653 88.1081 73.2653ZM111.996 77.1214C111.996 77.2834 112.028 77.4454 111.996 77.5751C111.703 78.9684 112.548 80.135 112.808 81.4311C112.808 81.4635 112.841 81.4959 112.873 81.4959C113.263 81.9172 113.653 82.3384 114.011 82.7921C114.888 83.8938 116.156 84.0234 117.391 84.3151C118.398 84.5419 119.276 83.7966 120.283 83.8614C120.348 83.8614 120.381 83.7966 120.446 83.7642C121.161 83.3753 121.876 82.9865 122.591 82.5653C122.916 82.3708 123.143 81.9496 123.501 81.82C124.021 81.6255 124.411 81.2691 124.768 80.9127C125.743 80.0377 126.686 79.1304 127.628 78.2231C128.018 77.8343 128.343 77.3806 128.668 76.927C129.091 76.4085 129.513 75.8576 129.936 75.3392C130.001 75.242 130.098 75.1448 130.163 75.0475C130.553 74.5291 131.008 74.0754 131.366 73.5246C131.951 72.5848 132.503 71.6127 133.056 70.6406C133.088 70.5758 133.153 70.511 133.218 70.4462C133.836 69.7657 134.031 68.8584 134.421 68.0807C134.844 67.1734 135.006 66.1689 135.266 65.1968C135.299 65.1319 135.299 65.0671 135.364 65.0347C135.916 64.5487 135.916 63.9006 135.981 63.2201C136.079 62.3128 136.241 61.4055 136.371 60.4982C136.404 60.2714 136.436 60.0445 136.404 59.8501C136.306 59.04 136.176 58.1975 136.046 57.3874C135.981 56.9013 135.754 56.7717 135.299 56.9662C134.876 57.1606 134.519 57.4198 134.128 57.6466C133.836 57.8087 133.511 57.9383 133.186 58.0031C132.796 58.1003 132.373 58.1003 131.983 58.1975C130.683 58.5863 129.383 59.0076 128.083 59.3965C127.726 59.4937 127.336 59.4613 126.978 59.5261C126.198 59.6233 125.418 59.7853 124.638 59.8501C124.313 59.8825 123.988 59.7529 123.663 59.6881C123.273 59.5909 122.916 59.4613 122.526 59.3965C122.201 59.364 121.941 59.2668 121.713 59.0076C121.388 58.5863 120.576 58.2947 120.218 58.5539C119.731 58.9104 119.243 59.3316 118.853 59.7853C118.463 60.2714 118.171 60.8546 117.846 61.3731C117.781 61.4703 117.651 61.5351 117.586 61.6323C117.196 62.3128 116.838 62.9933 116.481 63.6738C116.351 63.9006 116.253 64.1598 116.123 64.3542C115.733 65.0023 115.343 65.618 114.953 66.2661C114.888 66.3633 114.888 66.5253 114.856 66.6225C114.823 66.7521 114.758 66.8818 114.726 67.0114C114.336 68.0159 113.913 69.0204 113.556 70.0573C113.361 70.6082 113.231 71.1591 113.068 71.7099C112.938 72.1312 112.808 72.52 112.711 72.9413C112.581 73.557 112.548 74.2374 112.288 74.7883C112.093 75.242 111.931 75.6632 111.963 76.1817C112.028 76.5057 111.996 76.8298 111.996 77.1214ZM123.663 58.0031C124.606 57.9383 125.321 57.9059 126.036 57.8087C126.621 57.7438 127.173 57.6466 127.758 57.517C128.311 57.3874 128.863 57.193 129.416 57.031C129.838 56.9013 130.228 56.7393 130.618 56.6097C130.911 56.5125 131.171 56.3505 131.431 56.2533C132.373 55.8968 133.348 55.5728 134.291 55.2163C134.584 55.1191 134.876 54.9571 135.104 54.7627C135.234 54.6331 135.364 54.309 135.299 54.1794C135.006 53.4665 134.714 52.7536 134.291 52.138C133.803 51.3927 133.251 50.7122 132.666 50.0641C132.048 49.416 131.366 48.8976 130.683 48.3143C130.423 48.1199 130.228 48.2171 130.033 48.4763C129.481 49.2216 128.928 49.9669 128.311 50.6474C127.628 51.3927 126.848 52.0084 126.133 52.7212C125.873 52.9805 125.711 53.3045 125.483 53.5961C125.386 53.7258 125.256 53.9202 125.093 53.985C124.573 54.147 124.281 54.5359 123.988 54.9571C123.858 55.1515 123.663 55.346 123.501 55.508C123.013 55.9616 122.526 56.3829 122.071 56.8689C121.713 57.2254 121.778 57.6142 122.233 57.7438C122.753 57.8411 123.338 57.9383 123.663 58.0031ZM86.548 62.2804C86.743 62.2804 86.8405 62.2804 86.873 62.248C87.328 61.8915 87.8155 61.5027 88.2706 61.1463C89.3431 60.2714 90.4481 59.364 91.5206 58.4891C91.9756 58.1327 92.5281 57.9059 92.9506 57.517C93.5681 56.9662 94.1531 56.3505 94.9981 56.1237C95.0631 56.0912 95.1281 56.0264 95.1931 55.994C96.0706 55.346 96.9156 54.6979 97.7931 54.0498C97.8581 53.985 97.9881 53.985 98.0532 53.9526C98.6057 53.6286 99.1582 53.3045 99.6782 52.9481C100.198 52.5916 100.653 52.2028 101.141 51.8463C101.173 51.8139 101.271 51.8139 101.303 51.7815C101.531 51.6519 101.758 51.4899 101.986 51.3279C102.148 51.2307 102.278 51.101 102.408 50.9714C102.928 50.615 103.481 50.2585 104.001 49.9021C104.553 49.5133 105.073 49.092 105.626 48.7032C106.438 48.1523 107.251 47.6662 108.063 47.1478C108.161 47.083 108.258 46.9209 108.226 46.8237C108.226 46.7589 108.031 46.5969 107.966 46.6293C107.641 46.6617 107.348 46.7265 107.056 46.8561C106.763 46.9533 106.503 47.1478 106.243 47.2774C105.983 47.407 105.691 47.5366 105.431 47.6338C105.041 47.7634 104.683 47.8931 104.293 48.0551C103.968 48.1847 103.611 48.2495 103.383 48.4763C103.156 48.7032 102.928 48.8328 102.636 48.8328C102.148 48.8652 101.596 48.8004 101.368 49.3836C101.336 49.4484 101.271 49.4808 101.206 49.4808C100.653 49.7725 100.101 50.0317 99.5482 50.3234C99.3207 50.453 99.1582 50.6474 98.9307 50.7122C98.2481 50.9714 97.6631 51.3279 97.1106 51.8139C96.8831 52.0084 96.5581 52.1056 96.3306 52.2676C95.9081 52.5592 95.5181 52.8509 95.1281 53.1749C94.3481 53.7906 93.5356 54.3738 92.7881 55.0543C92.0731 55.67 91.4231 56.3505 90.8056 57.031C90.3181 57.5494 89.7331 58.0031 89.4406 58.716C89.4081 58.8132 89.3106 58.8456 89.2456 58.9428C88.5956 59.6557 87.9131 60.3038 87.328 61.049C87.003 61.3731 86.8405 61.8267 86.548 62.2804ZM124.736 50.939C125.191 51.0038 125.191 50.9714 125.353 50.6798C125.418 50.5826 125.483 50.4206 125.581 50.3882C126.263 50.2585 126.426 49.5133 126.946 49.1568C127.498 48.768 127.661 47.9903 128.278 47.6014C128.376 47.5366 128.311 47.1478 128.311 46.9209C128.148 46.9533 127.921 46.9533 127.856 47.0506C127.563 47.3746 127.336 47.731 127.043 48.0551C126.621 48.5411 126.198 48.9624 125.776 49.4484C125.418 49.8697 125.093 50.2909 124.768 50.7122C124.703 50.777 124.736 50.8742 124.736 50.939ZM132.633 42.0279C131.496 43.1621 130.456 44.2638 129.383 45.3331C129.383 45.3655 129.416 45.4304 129.416 45.4628C129.546 45.4952 129.741 45.56 129.806 45.5276C130.098 45.3007 130.358 45.0091 130.651 44.7499C130.781 44.6203 130.878 44.4906 131.008 44.361C131.171 44.1666 131.366 44.0046 131.528 43.8102C131.626 43.7129 131.691 43.6157 131.756 43.5185C132.081 43.1297 132.406 42.7408 132.731 42.352C132.731 42.3196 132.698 42.2548 132.633 42.0279Z" fill="#E38F52"/>
<path d="M24.5702 50.6473C24.4727 49.7076 25.3827 49.578 25.7403 48.9947C26.0653 48.4439 26.5203 47.9902 26.9428 47.5041C27.1703 47.2449 27.4628 47.0829 27.6578 46.8561C28.1778 46.2404 28.6653 45.5923 29.2178 45.009C29.5428 44.6526 29.9653 44.3934 30.2903 44.0369C30.9728 43.2268 31.5903 42.3519 32.3053 41.6066C33.0853 40.8289 33.8003 39.954 34.8403 39.468C34.9378 39.4356 35.0678 39.3384 35.1003 39.2735C35.2628 38.2042 36.4004 37.9126 36.8879 37.0701C36.9854 36.9405 37.2129 36.8757 37.3429 36.7785C37.6679 36.4868 37.9929 36.1952 38.2204 35.8711C38.3829 35.6119 38.5129 35.4175 38.8379 35.3851C39.2604 35.3527 39.4879 35.061 39.7154 34.7046C39.9104 34.413 40.2679 34.1861 40.5604 33.9593C40.6254 33.8945 40.7879 33.8945 40.8529 33.8297C41.2754 33.376 41.6329 32.9224 42.0554 32.4687C42.2829 32.2419 42.5104 31.9827 42.7379 31.7882C43.1604 31.4318 43.6154 31.1078 44.0379 30.7513C44.2329 30.5893 44.4279 30.3949 44.5904 30.2005C45.0129 29.7792 45.4354 29.3579 45.8254 28.9691C45.8579 28.9367 45.8579 28.9043 45.8904 28.9043C46.508 28.7747 46.8655 28.2562 47.3205 27.9322C47.7755 27.5757 48.198 27.1869 48.588 26.7656C49.173 26.2148 49.693 25.5667 50.3105 25.0482C50.733 24.6918 51.2855 24.5298 51.708 24.2057C52.0005 24.0113 52.228 23.6873 52.4555 23.3956C52.618 23.2012 52.813 23.0068 53.008 22.8448C53.4955 22.4235 54.0155 22.0347 54.5355 21.6458C54.7305 21.5162 54.893 21.3542 55.0555 21.1922C55.088 21.1598 55.1205 21.1598 55.1205 21.1598C55.3155 20.5441 55.9655 20.4145 56.3555 20.0256C56.453 19.9284 56.5831 19.8312 56.7456 19.7664C57.3631 19.4424 57.9481 19.1507 58.3056 18.5026C58.5331 18.1138 58.9881 17.8546 59.3456 17.5953C59.8006 17.2389 60.2881 16.9473 60.7106 16.5584C61.0031 16.2992 61.2631 16.0075 61.6856 15.9427C61.7831 15.9427 61.8806 15.7807 61.9456 15.6835C62.1081 15.3595 62.4331 15.2622 62.6281 15.0678C63.0181 14.6142 63.4081 14.3873 64.0256 14.4846C64.0581 14.4846 64.0906 14.4197 64.1231 14.3873C64.5131 13.9661 64.8706 13.5448 65.2931 13.1236C65.4231 13.0264 65.6506 12.994 65.8456 12.994C66.2031 13.0264 66.3981 12.9292 66.6582 12.6699C67.2432 12.0219 67.8282 11.309 68.5107 10.8229C68.9007 10.5637 69.3232 10.3044 69.7132 10.0128C70.1032 9.68877 70.6232 9.49435 71.0782 9.23512C71.5657 8.94348 72.0532 8.65185 72.5407 8.32781C72.6057 8.2954 72.6382 8.2306 72.6707 8.19819C72.8332 7.67973 73.2232 7.58252 73.7107 7.58252C73.7432 7.58252 73.8082 7.58252 73.8407 7.55011C74.2957 7.25848 74.7507 6.99925 75.2057 6.67521C75.6282 6.38357 76.0182 6.02713 76.4082 5.70309C76.5707 5.57347 76.7982 5.54107 77.0257 5.47626C77.3833 5.41146 77.6758 5.31424 77.8708 4.9578C77.9358 4.86059 78.0333 4.76338 78.1308 4.69857C78.7808 4.40693 79.4308 4.18011 80.0483 3.88847C80.1783 3.82366 80.3083 3.75885 80.4058 3.66164C80.6658 3.3052 81.0233 3.17558 81.4458 3.11078C81.5758 3.07837 81.8033 3.01356 81.8358 2.88395C82.0308 2.43029 82.4208 2.36549 82.8433 2.30068C82.9083 2.30068 83.0058 2.26827 83.0708 2.23587C83.4933 1.78222 84.0458 1.52298 84.6308 1.32856C85.0533 1.19894 85.4433 1.03693 85.8333 0.874906C86.2558 0.712886 86.6783 0.518463 87.1009 0.324039C87.2634 0.259231 87.4584 0.16202 87.6209 0.16202C88.5634 0.129616 89.4734 0.0972118 90.4159 0.0648078C91.0334 0.0648078 91.1959 0.194424 91.3259 0.842502C91.3584 1.13414 91.4234 1.39337 91.4234 1.685C91.4234 1.81462 91.3909 1.97664 91.2934 2.07385C90.5784 2.78674 89.9284 3.56443 89.1484 4.21251C88.3359 4.9254 87.3933 5.50867 86.5483 6.15674C86.1908 6.41598 85.8983 6.80482 85.5408 7.06405C84.9233 7.4529 84.5333 8.13338 83.8183 8.39262C83.5258 8.48983 83.3308 8.84627 83.0708 9.1055C82.6483 9.49435 82.2258 9.98041 81.7383 10.272C80.9258 10.7257 80.4708 11.5682 79.7233 12.0867C78.9108 12.6699 78.2608 13.4476 77.4483 13.9985C76.2132 14.8734 75.2707 16.0399 74.1657 17.0445C73.7432 17.4009 73.2882 17.7573 72.8657 18.1138C72.6707 18.3082 72.5407 18.5674 72.3457 18.7619C71.5332 19.572 70.6557 20.3497 69.8432 21.1598C68.9657 22.0347 68.1207 22.942 67.2432 23.8169C66.6581 24.4002 66.0081 24.9186 65.4231 25.4695C64.8381 26.0527 64.2206 26.636 63.6681 27.2193C62.4981 28.483 61.3281 29.7468 60.1256 31.0105C59.0856 32.1123 58.0131 33.1492 57.0056 34.2509C55.9005 35.4499 54.8605 36.7136 53.7555 37.9126C53.398 38.3338 52.9105 38.6579 52.5205 39.0467C52.2605 39.306 52.033 39.63 51.8055 39.8892C51.318 40.4401 50.863 40.9586 50.3755 41.5094C50.0505 41.8983 49.7255 42.3195 49.4005 42.676C48.718 43.4537 48.003 44.2313 47.3205 45.009C46.963 45.3979 46.638 45.8191 46.2804 46.208C46.1829 46.3052 46.053 46.4024 45.923 46.4996C45.8254 46.5968 45.6954 46.6616 45.5979 46.7589C44.7529 47.8282 43.9729 48.9299 43.1279 49.9992C42.3479 50.9714 41.4704 51.8787 40.6904 52.8508C40.2354 53.4017 39.8779 54.0173 39.4229 54.5358C38.8054 55.3135 38.1229 56.0264 37.5054 56.8041C36.8879 57.5494 36.3354 58.3271 35.7504 59.0723C35.3928 59.4936 35.0028 59.8824 34.6453 60.3037C34.5478 60.4333 34.4503 60.5305 34.3528 60.6601C34.2228 60.8546 34.0603 61.0166 33.9303 61.211C33.8978 61.2434 33.8653 61.2758 33.8003 61.3082C33.4753 61.5674 33.3128 62.0859 33.5078 62.1507C33.8328 62.2479 34.2878 62.3127 34.5153 62.1507C35.5553 61.3082 36.5629 60.3685 37.5704 59.4612C38.1879 58.8779 38.8054 58.2298 39.3579 57.5818C39.8454 57.0309 40.3004 56.4476 40.7229 55.8644C41.4054 54.957 42.4779 54.633 43.4529 54.1794C43.7779 54.0173 44.2004 54.0497 44.4929 54.3738C44.5904 54.471 44.7529 54.5682 44.9154 54.6006C45.9554 54.8274 46.573 55.5403 47.0605 56.4152C47.1255 56.5448 47.2555 56.642 47.353 56.7717C47.4505 56.8689 47.613 56.9661 47.6455 57.0633C47.7755 57.8086 48.393 58.1974 48.783 58.7483C48.9455 59.0075 49.2705 59.202 49.563 59.2992C50.343 59.526 51.123 59.7528 51.9355 59.85C52.4555 59.9148 52.9755 59.7528 53.528 59.7204C54.698 59.6556 55.803 59.1372 56.9731 59.2992C57.2331 59.3316 57.5581 59.2668 57.7856 59.1372C58.9556 58.4891 60.2556 58.5539 61.4906 58.4243C62.1731 58.3595 62.8231 58.2298 63.4731 58.1326C64.2856 58.0354 65.0981 57.9382 65.8781 57.8086C66.3656 57.7114 66.8857 57.6142 67.3732 57.4197C68.0232 57.1281 68.5107 57.1281 68.7707 57.5494C69.0957 58.0354 68.9007 58.6187 68.3807 59.0723C67.6007 59.7852 66.6581 59.9797 65.6506 59.9797C64.5781 59.9472 63.5706 60.1741 62.5306 60.3685C61.7506 60.5305 60.9381 60.5629 60.1581 60.6925C59.0531 60.887 57.9481 61.0814 56.8431 61.3082C56.6806 61.3406 56.5506 61.4054 56.3881 61.4054C54.763 61.4054 53.138 61.373 51.5455 61.4702C50.7005 61.5026 49.9855 61.3406 49.2705 60.9194C49.043 60.7898 48.7505 60.7573 48.523 60.6601C48.3605 60.5953 48.2305 60.4657 48.068 60.3685C48.003 60.3037 47.9705 60.2065 47.9055 60.1417C47.483 59.7528 47.0605 59.3964 46.6705 58.9751C46.573 58.8779 46.5405 58.6835 46.443 58.5539C46.313 58.3595 46.183 58.1326 46.0205 57.9382C45.9555 57.841 45.8254 57.7762 45.8254 57.679C45.7604 57.0309 45.1754 56.7393 44.8179 56.318C44.5254 55.994 43.8104 56.0912 43.4204 56.4476C43.1604 56.6745 42.8679 56.8365 42.5754 57.0309C42.3479 57.1929 42.1204 57.3873 41.9254 57.5818C41.2104 58.4243 40.4954 59.2668 39.7804 60.1093C39.5854 60.3361 39.4879 60.6277 39.2604 60.8222C38.5454 61.535 37.7979 62.2479 37.0179 62.896C35.9129 63.8357 34.5803 64.0949 33.2478 63.5765C32.5328 63.2849 32.1428 63.1876 31.7528 63.9005C31.6553 64.1274 31.4603 64.3218 31.3303 64.5162C31.0378 64.9375 30.7453 65.3587 30.3878 65.7151C30.0303 66.104 29.6078 66.4604 29.2178 66.8493C28.9903 67.1085 28.7953 67.4326 28.6003 67.7242C28.2103 68.2103 27.7878 68.7287 27.3653 69.1824C26.7803 69.8304 26.1303 70.4785 25.5452 71.1266C24.9927 71.7423 24.4727 72.3579 23.8877 72.9412C23.4327 73.3949 22.9452 73.7837 22.4902 74.2374C21.9052 74.8206 21.3527 75.4039 20.7677 75.9872C20.5077 76.2464 20.2477 76.5381 19.9552 76.7649C19.1102 77.413 18.2652 78.061 17.4202 78.6767C17.3552 78.7415 17.2252 78.7739 17.1927 78.8387C17.0302 79.26 16.7052 79.422 16.2827 79.4544C16.2502 79.4544 16.1852 79.4868 16.1527 79.5192C15.8277 80.1997 14.9176 80.0377 14.4951 80.5885C14.4626 80.6534 14.3651 80.6858 14.3001 80.7182C12.5776 81.269 10.8226 81.8847 9.00259 81.8523C7.47507 81.8199 5.98006 81.4635 4.61505 80.783C4.16004 80.5561 3.83504 80.1673 3.44503 79.8433C3.34753 79.7785 3.31503 79.6488 3.21753 79.6164C2.63253 79.3572 2.34002 78.8063 1.91752 78.3851C1.39751 77.8666 1.26751 77.1537 0.780008 76.6677C0.617506 76.5057 0.650006 76.214 0.585006 75.9548C0.390004 75.1123 0.130001 74.2374 0.0325003 73.3949C0 72.1959 0 70.8998 0 69.636C0 69.1176 0.162502 68.5991 0.260003 68.0806C0.292503 67.951 0.260003 67.789 0.195002 67.6918C-0.0325003 67.3029 0 66.9789 0.195002 66.5901C0.357504 66.266 0.487505 65.8772 0.520005 65.5207C0.617506 64.6134 0.682507 63.6737 0.780008 62.7664C0.812508 62.4748 0.877509 62.1183 1.04001 61.8915C1.30001 61.4702 1.43001 61.0814 1.36501 60.5953C1.36501 60.4333 1.36501 60.2713 1.43001 60.1417C1.59252 59.8176 1.78752 59.526 1.56002 59.1372C1.49501 59.0399 1.65752 58.7807 1.78752 58.6835C2.11252 58.3919 2.21002 58.0354 2.24252 57.6466C2.30752 57.1929 2.43752 56.7717 2.56753 56.318C2.66503 55.8968 2.79503 55.5079 2.92503 55.1191C3.02253 54.8274 3.21753 54.5682 3.34753 54.2442C3.44503 53.9849 3.57504 53.6933 3.60754 53.4017C3.64004 52.9156 3.77004 52.5592 4.09504 52.1703C4.29004 51.9435 4.42004 51.5546 4.45254 51.2306C4.48504 50.7769 4.58254 50.3881 4.94005 49.9992C5.20005 49.74 5.26505 49.2864 5.39505 48.8975C5.46005 48.7355 5.42755 48.5087 5.52505 48.4115C5.94756 48.055 6.01256 47.6014 6.04506 47.1153C6.04506 47.0181 6.07756 46.8885 6.14256 46.8561C6.66257 46.6292 6.66257 46.1756 6.72757 45.7219C6.76007 45.5275 6.89007 45.3007 7.02007 45.2035C7.41007 44.9442 7.47507 44.5878 7.50757 44.1665C7.54007 43.8425 7.76758 43.5185 7.89758 43.1944C7.99508 42.9676 8.09258 42.7408 8.22258 42.5139C8.32008 42.3195 8.41758 42.1251 8.51508 41.9307C8.67758 41.639 8.84009 41.315 9.00259 41.0234C9.19759 40.6993 9.36009 40.3429 9.55509 40.0188C9.62009 39.8892 9.62009 39.7596 9.68509 39.63C9.8476 39.306 10.0426 38.9819 10.2051 38.6579C10.2376 38.5931 10.3676 38.5283 10.3676 38.431C10.4001 37.6534 11.0176 37.1673 11.2451 36.4868C11.2776 36.422 11.2776 36.3248 11.3426 36.26C11.7976 35.9359 11.8626 35.4175 12.0576 34.9638C12.3176 34.413 12.8051 33.9269 13.1951 33.4408C13.2601 33.3436 13.2926 33.2464 13.3576 33.1816C13.5201 32.9224 13.7151 32.6632 13.8776 32.4039C13.9101 32.3715 13.9751 32.3391 13.9751 32.3067C14.0401 31.6262 14.6251 31.2374 14.9501 30.7189C15.3727 30.0708 15.7627 29.4552 16.1852 28.8071C16.2502 28.7099 16.3152 28.5803 16.3802 28.483C16.4452 28.3534 16.4452 28.1914 16.5427 28.0942C16.9652 27.7702 17.2577 27.3489 17.5177 26.8628C17.8102 26.3444 18.2002 25.8259 18.5902 25.3723C19.0127 24.8538 19.5002 24.3677 19.9552 23.8817C20.0202 23.8169 20.1827 23.7521 20.2152 23.6873C20.3777 22.8772 21.1577 22.4883 21.5477 21.8726C22.3927 20.4793 23.6927 19.4424 24.6352 18.1462C25.2852 17.2713 26.1303 16.6232 26.8128 15.7807C27.1378 15.3595 27.4628 14.9058 27.8203 14.5494C28.1128 14.2577 28.5028 14.0633 28.7953 13.7717C28.9578 13.642 29.0878 13.4476 29.2503 13.2856C29.4128 13.1236 29.6078 13.0264 29.7703 12.8644C29.8678 12.7671 29.9978 12.7023 30.0953 12.6051C30.4853 12.2487 30.9403 11.8922 31.2328 11.471C31.5903 10.9849 32.0778 10.6933 32.5328 10.3693C33.3778 9.72118 34.1253 8.94348 34.9378 8.2306C35.3928 7.80935 35.8804 7.38809 36.3679 6.99925C36.7904 6.67521 37.2129 6.38357 37.6354 6.09194C37.7979 5.99473 37.9279 5.86511 38.0579 5.73549C38.1229 5.67069 38.1554 5.54107 38.2204 5.50867C38.6754 5.37905 38.9029 4.9578 39.2604 4.69857C39.6829 4.34212 40.2679 4.1477 40.7554 3.85607C40.9504 3.72645 41.1454 3.59683 41.3404 3.43482C41.5354 3.3052 41.7629 3.14318 41.9579 3.01356C42.0229 2.94876 42.1529 2.94876 42.2179 2.88395C42.4454 2.43029 42.8679 2.30068 43.2904 2.10625C43.8104 1.91183 44.2654 1.58779 44.7529 1.29616C44.8504 1.26375 44.8829 1.16654 44.9804 1.13414C45.9879 0.810098 46.833 0.0324039 47.9705 0.0648078C48.263 0.0648078 48.5555 0 48.848 0C49.368 0.0324039 49.8555 0.129616 50.1805 0.583271C50.2455 0.680482 50.3755 0.777694 50.5055 0.874906C50.863 1.10173 51.058 1.42577 51.0255 1.84702C50.993 2.59231 51.058 3.3376 50.8955 4.05049C50.733 4.73097 50.3755 5.37905 49.953 5.92992C49.628 6.41598 49.108 6.77242 48.653 7.16127C48.523 7.25848 48.2305 7.32329 48.068 7.25848C47.9705 7.22607 47.873 6.86963 47.938 6.74002C48.068 6.38357 48.328 6.09194 48.4905 5.73549C48.6205 5.50867 48.783 5.24943 48.8155 5.02261C48.8805 4.34213 48.848 3.66164 49.3355 3.07837C49.563 2.81914 49.498 2.43029 49.108 2.26827C49.043 2.23587 48.978 2.20347 48.913 2.13866C48.393 1.6526 47.873 1.36096 47.2555 1.94424C47.158 2.04145 46.963 2.10625 46.833 2.10625C46.2805 2.10625 45.7929 2.13866 45.5329 2.72193C45.5004 2.81914 45.2729 2.94876 45.1429 2.94876C44.6879 2.91635 44.3954 3.17558 44.0704 3.46722C43.9729 3.56443 43.8104 3.59684 43.6479 3.66164C43.4204 3.75885 43.1929 3.88847 42.9654 3.98568C42.9329 4.01809 42.9004 4.05049 42.8679 4.08289C42.2504 4.47174 41.6329 4.82818 41.0154 5.21703C40.8854 5.28184 40.7879 5.44386 40.6904 5.54107C40.5279 5.67069 40.3654 5.83271 40.2029 5.96232C39.7479 6.28636 39.2604 6.6104 38.8054 6.93444C38.7404 6.96684 38.7079 7.09646 38.6429 7.09646C38.0904 7.29088 37.7004 7.71213 37.3104 8.10098C36.5629 8.78146 35.6529 9.29992 35.0353 10.1424C35.0028 10.1748 35.0028 10.2072 34.9703 10.2072C33.8328 10.6609 33.1828 11.6978 32.2403 12.4107C31.9153 12.6375 31.6878 12.994 31.3953 13.2532C30.7778 13.8365 30.1278 14.3549 29.5103 14.9382C29.1853 15.2298 28.9253 15.5863 28.6328 15.9103C27.9503 16.6232 27.2353 17.3037 26.5853 18.0166C26.1303 18.5026 25.7403 19.0535 25.3502 19.6044C25.3177 19.6368 25.3177 19.7016 25.2852 19.734C24.7002 20.3821 24.0827 20.9977 23.4977 21.6458C23.0752 22.1319 22.7177 22.6179 22.2952 23.104C21.9377 23.5252 21.5477 23.9141 21.1902 24.3353C21.1252 24.4002 21.0602 24.4326 21.0277 24.4974C20.9952 24.951 20.5727 25.1778 20.4102 25.5019C20.1177 26.15 19.3377 26.4092 19.2077 27.1545C19.1427 27.4461 18.7852 27.7053 18.5902 27.997C18.2002 28.5154 17.8427 29.0339 17.4527 29.5524C17.3877 29.6496 17.2902 29.7792 17.2577 29.9088C17.1602 30.2653 16.9977 30.5245 16.6402 30.6865C16.5752 30.7189 16.5102 30.7837 16.4777 30.8485C16.1852 31.367 15.9252 31.8855 15.6327 32.4039C15.5352 32.5983 15.4052 32.7604 15.2751 32.9224C15.1776 33.052 15.0476 33.1492 15.0151 33.2788C14.9176 33.6353 14.7226 33.8945 14.3976 34.1213C14.2676 34.2185 14.2026 34.413 14.1051 34.575C13.9426 34.8342 13.8126 35.0934 13.6826 35.3527C13.6826 35.3851 13.6176 35.3851 13.6176 35.4175C13.3251 36.0008 13.0976 36.6164 12.7401 37.1673C12.2526 37.8802 11.9926 38.7227 11.4401 39.4032C11.4076 39.4356 11.3751 39.468 11.3426 39.5004C11.0826 40.1809 10.7901 40.8613 10.5301 41.5094C10.4001 41.8335 10.2376 42.1251 10.0751 42.4167C9.9776 42.6436 9.8476 42.9028 9.7501 43.1296C9.65259 43.3564 9.62009 43.6157 9.45759 43.7453C9.06759 44.0693 8.87259 44.4582 8.87259 44.9442C8.87259 44.9766 8.87259 45.0414 8.84009 45.0738C8.32008 45.7219 8.15758 46.532 7.80008 47.2449C7.67007 47.5365 7.60507 47.893 7.47507 48.217C7.37757 48.4763 7.31257 48.7679 7.11757 48.9623C6.76007 49.3188 6.63006 49.7076 6.63006 50.1613C6.63006 50.3881 6.53256 50.6149 6.43506 50.8093C6.27256 51.2306 6.07756 51.6194 5.91506 52.0407C5.75256 52.4295 5.59005 52.8184 5.42755 53.2072C5.39505 53.272 5.33005 53.3044 5.33005 53.3693C5.26505 54.1794 4.81005 54.8598 4.55004 55.6051C4.38754 56.0264 4.42004 56.5124 4.35504 56.9337C4.32254 57.0633 4.32254 57.2577 4.25754 57.3225C3.70504 57.9058 3.70504 58.6511 3.57503 59.364C3.51003 59.7852 3.31503 60.1741 3.18503 60.5953C3.12003 60.7573 3.08753 60.9518 3.05503 61.1462C2.86003 61.9563 2.76253 62.8312 2.47002 63.6089C2.11252 64.5162 2.24252 65.4559 2.17752 66.3956C2.08002 67.3677 2.04752 68.3399 1.91752 69.312C1.75502 70.4785 1.85252 71.6127 2.01502 72.7468C2.11252 73.4597 2.14502 74.205 2.24252 74.9503C2.27502 75.2095 2.34002 75.4687 2.47002 75.6955C2.86003 76.376 3.18503 77.1213 3.67254 77.6722C4.22504 78.2879 4.61505 79.0656 5.46005 79.3896C6.07756 79.6164 6.53256 80.1673 7.21507 80.1997C8.06008 80.2645 8.90509 80.5237 9.68509 80.3941C10.6601 80.2645 11.7001 80.2969 12.5776 79.6812C12.6101 79.6488 12.6751 79.6164 12.7076 79.6164C13.6176 79.4868 14.3001 78.9684 15.0151 78.4823C15.5352 78.1258 16.0227 77.7046 16.5427 77.3158C16.9327 76.9917 17.3227 76.6677 17.7452 76.376C18.8502 75.5983 19.7927 74.6586 20.7027 73.6865C21.0277 73.3625 21.3527 73.0708 21.6777 72.7468C22.6202 71.7747 23.5627 70.8026 24.5052 69.8628C24.5377 69.8304 24.5702 69.798 24.6027 69.7656C25.4152 68.5019 26.5528 67.5622 27.5278 66.428C28.1128 65.7476 28.6328 65.0023 29.2178 64.3218C29.6403 63.8357 30.0953 63.3821 30.5503 62.896C30.6478 62.7988 30.7128 62.6692 30.7778 62.5396C30.8428 62.4099 30.9078 62.2803 31.0053 62.1831C31.1678 61.9887 31.4928 61.8591 31.4928 61.6647C31.5253 61.211 31.4928 60.7573 31.3628 60.3361C31.1028 59.4936 30.8753 58.6835 30.9728 57.8086C31.0378 57.1605 30.9403 56.5124 30.8753 55.8968C30.8753 55.7671 30.6153 55.5727 30.4853 55.5727C30.3228 55.5727 30.0303 55.7023 30.0303 55.832C29.9003 56.7069 29.2178 57.2253 28.8278 57.9058C28.5353 58.3919 28.2103 58.8455 27.8853 59.3316C27.3328 60.1417 26.5853 60.5953 25.5777 60.5305C25.5127 60.5305 25.4152 60.5305 25.3502 60.4657C24.4077 59.85 23.3352 59.3964 23.2052 58.0678C23.1402 57.4846 22.9777 56.9337 22.8802 56.3828C22.8477 56.1236 22.8477 55.832 22.5227 55.832C22.2302 55.832 21.9377 55.9292 21.7752 56.2856C21.4502 57.0309 21.0927 57.7438 20.4752 58.2946C20.4427 58.3271 20.4102 58.3595 20.3777 58.3919C20.0852 58.8131 19.8252 59.2668 19.5327 59.6556C19.0777 60.3037 18.5902 60.9518 18.1027 61.5998C18.0052 61.7295 17.9402 61.8591 17.9077 62.0211C17.8102 62.7016 17.0627 62.9284 16.4127 62.734C15.8927 62.572 15.5027 61.7619 15.7627 61.2758C16.1527 60.5629 16.4777 59.8176 16.5752 59.0075C16.6077 58.7159 16.9002 58.4567 16.9977 58.165C17.1602 57.7438 17.2252 57.2901 17.3552 56.8689C17.4527 56.5448 17.5502 56.2208 17.6802 55.8968C17.8102 55.5403 18.0052 55.1839 18.1027 54.8274C18.3302 53.9525 18.7852 53.1424 19.2402 52.3971C19.2727 52.3647 19.3052 52.3323 19.3052 52.2675C19.4027 51.5222 19.9877 51.101 20.4102 50.5501C20.8002 50.0317 21.2877 49.902 21.9052 49.902C22.6527 49.8696 23.2702 50.0965 23.9202 50.4205C24.0177 50.6797 24.2777 50.6149 24.5702 50.6473ZM24.7002 56.9661C24.7652 57.2901 24.7977 57.7114 24.9602 58.0678C25.1552 58.5215 25.8053 58.5539 26.0328 58.165C26.6178 57.2253 27.1378 56.2532 27.7878 55.3459C28.2753 54.6654 28.9253 54.0497 29.5103 53.4341C29.9003 53.0452 30.6153 53.0128 31.0053 53.3368C31.5253 53.7905 32.2728 54.0497 32.4353 54.8598C32.4678 54.957 32.5653 55.0219 32.6303 55.1191C32.7278 55.3459 32.8903 55.6051 32.9228 55.8644C33.0203 56.6745 33.1828 57.517 32.8903 58.3271C32.8578 58.4243 32.8253 58.5215 32.8578 58.6187C32.9553 58.8131 33.0528 59.0075 33.1828 59.202C33.3453 59.0723 33.5728 58.9427 33.6703 58.7807C34.2228 58.003 34.6453 57.0957 35.2953 56.48C35.7828 56.0264 36.0754 55.4431 36.5304 54.957C36.7904 54.6978 37.0504 54.4386 37.2779 54.1794C37.6354 53.7257 37.9604 53.2072 38.3504 52.786C38.9679 52.0731 39.6504 51.4574 40.2029 50.7121C40.8204 49.902 41.6329 49.254 41.9254 48.217C41.9579 48.1198 42.1529 48.055 42.2504 47.9578C42.6404 47.569 43.0629 47.2125 43.4204 46.8237C43.6479 46.532 43.8104 46.1756 44.0054 45.8839C44.2979 45.4951 44.6229 45.1387 44.9479 44.7822C45.5654 44.0693 46.183 43.3564 46.8005 42.676C47.353 42.0603 47.9705 41.5094 48.523 40.8937C49.303 40.0512 50.083 39.1763 50.8305 38.3014C51.4155 37.6534 51.968 36.9729 52.553 36.2924C52.878 35.9359 53.203 35.5795 53.528 35.2231C54.1455 34.6074 54.7955 34.0565 55.3805 33.4408C56.2255 32.5983 57.0381 31.7234 57.8506 30.8809C58.0456 30.6865 58.2081 30.4597 58.4031 30.2653C58.7606 29.9088 59.1181 29.52 59.4431 29.1635C59.6056 29.0015 59.7681 28.8395 59.9306 28.6775C60.2231 28.3534 60.5156 28.0294 60.8406 27.7054C61.2306 27.3489 61.6531 27.0249 62.0431 26.6684C62.1081 26.6036 62.1731 26.474 62.1731 26.3768C62.1406 25.5667 62.9206 25.3075 63.2781 24.789C63.5056 24.4326 64.0581 24.2705 64.4156 23.9789C64.7081 23.7521 65.0006 23.4928 65.2931 23.2336C65.4881 23.0716 65.6831 22.8772 65.8456 22.6827C65.9756 22.5531 66.0731 22.3587 66.2031 22.2291C67.0482 21.419 67.8932 20.6089 68.7057 19.7664C69.1607 19.3127 69.5832 18.7943 70.0382 18.3082C70.4607 17.8546 71.2407 17.7898 71.4032 17.0121C71.4032 16.9473 71.5332 16.9148 71.5982 16.8824C71.9557 16.6232 72.3457 16.3964 72.6707 16.0723C73.0932 15.6187 73.3857 15.003 74.0032 14.7438C74.3282 14.6142 74.6207 14.3225 74.9132 14.0633C75.4657 13.5772 75.9857 13.0588 76.5382 12.5403C77.1558 11.957 77.7733 11.3414 78.3908 10.7581C78.4883 10.6609 78.5858 10.5313 78.6833 10.5313C79.3983 10.4017 79.6583 9.78598 80.0808 9.36473C80.1458 9.29992 80.2108 9.17031 80.3083 9.13791C80.9908 8.78146 81.5108 8.2306 81.9983 7.64733C82.0633 7.55011 82.1608 7.48531 82.2583 7.4529C82.8433 7.32329 83.1358 6.86963 83.5258 6.51319C83.6558 6.41598 83.7208 6.25396 83.8508 6.18915C84.5333 5.7679 85.1508 5.28184 85.6383 4.63376C85.7033 4.56895 85.7683 4.50414 85.8658 4.47174C86.6784 3.95328 87.4909 3.46722 88.2709 2.91635C88.4009 2.81914 88.4009 2.4951 88.4659 2.30068C88.3034 2.26827 88.1084 2.17106 87.9784 2.20347C87.2634 2.33308 86.4833 2.39789 85.9958 3.04597C85.9633 3.07837 85.9308 3.11078 85.8658 3.11078C85.1508 3.07837 84.6308 3.56443 84.0133 3.79126C83.6558 3.92087 83.3308 3.98568 83.1358 4.34212C83.0708 4.43934 82.8758 4.50414 82.7458 4.53655C82.5833 4.56895 82.3558 4.50414 82.2258 4.56895C81.5433 4.9902 80.8608 5.37905 80.1133 5.70309C79.4308 6.02713 78.7808 6.44838 78.1308 6.83723H78.0983C77.5133 7.12886 77.0257 7.61492 76.3757 7.80934C76.2782 7.84175 76.2457 7.97136 76.1482 8.06858C76.0832 8.13338 75.9857 8.263 75.9207 8.2954C75.4332 8.39262 75.0757 8.58704 74.7182 8.91108C74.2307 9.33233 73.5157 9.49435 72.9957 9.88319C72.5407 10.2072 72.0857 10.4989 71.6632 10.7905C70.9482 11.309 70.3307 11.8922 69.4857 12.1839C69.3882 12.2163 69.3232 12.3135 69.2257 12.3783C68.7057 12.7671 68.2182 13.1884 67.6982 13.5772C67.2432 13.9013 66.6907 14.1281 66.2681 14.4521C65.7156 14.841 65.2606 15.3271 64.7081 15.7483C64.1556 16.202 63.5706 16.5908 62.9856 17.0121C62.2381 17.5953 61.5231 18.211 60.7756 18.7943C60.5156 18.9887 60.2556 19.2155 59.9956 19.4099C59.6381 19.7016 59.3131 19.9932 58.9556 20.2524C58.5006 20.5765 57.9156 20.8033 57.5581 21.2246C56.9081 22.0671 55.8355 22.3587 55.1855 23.2012C54.8605 23.6225 54.2755 23.8169 53.853 24.2057C52.9105 25.0158 51.968 25.8583 51.058 26.7008C50.7005 27.0249 50.343 27.3489 49.9855 27.6729C49.498 28.0942 48.978 28.483 48.4905 28.9043C48.003 29.2931 47.548 29.7468 47.0605 30.1356C46.703 30.4273 46.313 30.7189 45.9554 31.0105C45.5004 31.3994 45.0779 31.8206 44.6554 32.2419C44.2654 32.6632 43.8754 33.0844 43.4854 33.5056C43.3554 33.6353 43.2254 33.7325 43.0954 33.8297C42.9004 33.9593 42.7054 34.0889 42.5429 34.2509C41.7629 35.061 41.0154 35.9035 40.2029 36.6812C39.2929 37.5561 38.2529 38.269 37.4404 39.2735C36.4979 40.4077 35.4253 41.4122 34.4178 42.4815C34.1253 42.8056 33.8653 43.162 33.5403 43.4537C32.8903 44.0693 32.1753 44.6202 31.5578 45.3007C30.6803 46.3052 29.9003 47.4069 29.0228 48.4439C28.6003 48.9623 27.9178 49.254 27.6578 49.9344C27.6253 49.9992 27.4953 50.0316 27.4303 50.0965C27.0403 50.5177 26.6178 50.9714 26.2278 51.3926C25.8703 51.8139 25.5452 52.2999 25.1227 52.6564C24.8627 52.8832 24.7652 53.0452 24.8302 53.3693C24.8627 53.5313 24.9277 53.6609 24.9277 53.8229C24.8302 54.8274 24.7652 55.8644 24.7002 56.9661ZM20.1827 54.795C20.2802 54.9246 20.3777 55.0219 20.4752 55.1515C20.6052 55.0543 20.8327 54.957 20.8652 54.8274C20.9627 54.471 21.1252 54.2442 21.4177 54.0173C21.8077 53.7257 22.0677 53.272 22.3927 52.8832C22.4577 52.8184 22.4902 52.6888 22.4577 52.624C22.3927 52.4295 22.2952 52.2351 22.1977 52.0731C22.0677 52.1703 21.9052 52.2675 21.7752 52.3971C21.1902 52.948 21.0602 53.8229 20.4102 54.3414C20.2477 54.4062 20.2477 54.6006 20.1827 54.795Z" fill="#E38F52"/>
<path d="M67.438 43.1295C67.438 42.6759 67.698 42.3518 68.088 42.1898C68.478 41.9954 68.7055 42.287 68.933 42.5462C69.0305 42.6759 69.1605 42.7731 69.2905 42.8703C69.518 43.0971 69.6155 43.3239 69.3555 43.5832C69.2905 43.648 69.2255 43.7452 69.2255 43.81C69.128 44.2636 68.868 44.5229 68.413 44.4581C67.958 44.4257 67.633 44.1016 67.568 43.6156C67.438 43.4535 67.438 43.2915 67.438 43.1295Z" fill="#E38F52"/>
</svg>
