<svg width="14" height="13" viewBox="0 0 14 13" fill="none" xmlns="http://www.w3.org/2000/svg">
<path d="M2.1913 13H0V3.60241H2.1913V13ZM1.10535 2.21235C0.795074 2.21235 0.530049 2.10793 0.310273 1.8991C0.103424 1.67721 0 1.41616 0 1.11596C0 0.815763 0.109888 0.554719 0.329665 0.332832C0.549441 0.110944 0.808002 0 1.10535 0C1.40269 0 1.66125 0.110944 1.88103 0.332832C2.10081 0.554719 2.21069 0.815763 2.21069 1.11596C2.21069 1.41616 2.10081 1.67721 1.88103 1.8991C1.67418 2.10793 1.41562 2.21235 1.10535 2.21235Z" fill="#E38F52"/>
<path d="M14 7.6747V13H11.8087V7.10693C11.8087 6.03665 11.6212 5.26004 11.2463 4.77711C10.8843 4.28112 10.4771 4.03313 10.0246 4.03313C9.61093 4.03313 9.18431 4.21586 8.74475 4.58133C8.3052 4.93373 8.01432 5.38404 7.87211 5.93223C7.80747 6.21938 7.76222 6.51305 7.73637 6.81325C7.72344 7.1004 7.71698 7.46586 7.71698 7.90964V13H5.52567V3.60241H7.71698V5.09036C7.96261 4.64659 8.34398 4.26807 8.86111 3.95482C9.37823 3.64157 9.9212 3.48494 10.49 3.48494C11.0072 3.48494 11.479 3.56325 11.9057 3.71988C12.3323 3.86345 12.7137 4.13102 13.0498 4.52259C13.373 4.88805 13.6122 5.3253 13.7673 5.83434C13.9224 6.34337 14 6.95683 14 7.6747Z" fill="#E38F52"/>
</svg>
