<svg width="179" height="179" viewBox="0 0 179 179" fill="none" xmlns="http://www.w3.org/2000/svg">
<path d="M40.0097 14.875L46.9001 24.047L45.21 25.3155L42.2524 21.38L37.5071 24.9252L40.4648 28.8607L38.7747 30.1292L31.8843 20.9897L33.5744 19.7212L36.402 23.4941L41.1473 19.9489L38.3196 16.176L40.0097 14.875Z" fill="#232328"/>
<path d="M56.0983 16.9565L56.9433 18.5177L49.3704 22.5833L43.9751 12.468L51.353 8.5L52.1981 10.0612L46.7053 12.9884L48.1028 15.6229L52.9781 13.021L53.7907 14.5821L48.9154 17.1841L50.4105 19.9813L56.0983 16.9565Z" fill="#232328"/>
<path d="M66.7262 12.8909L67.3437 14.5822L58.1782 17.9648L57.6907 16.6313L61.2009 6.5811L54.993 8.85784L54.3755 7.16655L63.2485 3.91406L63.736 5.24758L60.1933 15.2978L66.7262 12.8909Z" fill="#232328"/>
<path d="M76.4119 12.5978L73.4217 9.80063C73.3242 9.83316 73.1942 9.86568 72.9992 9.89821L70.4641 10.4186L71.1466 13.7036L69.0665 14.1264L66.6938 2.93789L71.3091 1.96214C72.2842 1.76699 73.1617 1.73447 73.9418 1.89709C74.7218 2.05972 75.3718 2.41749 75.8919 2.93789C76.4119 3.45829 76.7369 4.14131 76.9319 4.95443C77.0944 5.80008 77.0619 6.58067 76.7694 7.26369C76.4769 7.94672 75.9894 8.53216 75.2743 8.98751L78.622 12.1424L76.4119 12.5978ZM73.7793 3.88111C73.2267 3.58839 72.5117 3.55586 71.6016 3.75101L69.164 4.27141L70.1065 8.75984L72.5442 8.23944C73.4542 8.04429 74.1043 7.71904 74.4943 7.23117C74.8843 6.7433 75.0143 6.12532 74.8518 5.40978C74.6893 4.66171 74.3318 4.17383 73.7793 3.88111Z" fill="#232328"/>
<path d="M82.7498 11.1995C81.7748 10.7441 81.0272 10.0611 80.4422 9.18294C79.8572 8.30477 79.5647 7.32903 79.4996 6.19066C79.4346 5.08481 79.6622 4.04402 80.1497 3.13332C80.6372 2.22262 81.3523 1.47455 82.2623 0.921629C83.1724 0.368706 84.2124 0.0759823 85.3825 0.0109325C86.5526 -0.0541172 87.6251 0.173557 88.5677 0.628905C89.5427 1.08425 90.2903 1.76728 90.8753 2.64545C91.4603 3.52362 91.7528 4.49936 91.8178 5.63773C91.8828 6.7761 91.6553 7.78437 91.1678 8.69507C90.6803 9.60577 89.9652 10.3538 89.0552 10.9068C88.1451 11.4597 87.1051 11.7524 85.935 11.8175C84.7649 11.85 83.7249 11.6548 82.7498 11.1995ZM87.8851 9.31304C88.4702 8.95527 88.9252 8.43487 89.2502 7.8169C89.5752 7.19893 89.7052 6.48338 89.6727 5.73531C89.6402 4.98724 89.4452 4.30421 89.0552 3.68624C88.6652 3.10079 88.1776 2.61292 87.5601 2.3202C86.9426 1.99495 86.2275 1.86485 85.48 1.89737C84.7324 1.9299 84.0499 2.12505 83.4324 2.51535C82.8473 2.87312 82.3923 3.39352 82.0673 4.01149C81.7423 4.62946 81.6123 5.34501 81.6448 6.09308C81.6773 6.84115 81.8723 7.52418 82.2623 8.14215C82.6523 8.7276 83.1399 9.21547 83.7574 9.50819C84.3749 9.83344 85.09 9.96354 85.8375 9.93102C86.6176 9.89849 87.3001 9.70334 87.8851 9.31304Z" fill="#232328"/>
<path d="M105.631 1.40909L104.233 12.7928L102.511 12.5651L97.1804 4.07613L96.2054 11.7845L94.1252 11.5243L95.5228 0.140625L97.2454 0.368299L102.576 8.85729L103.518 1.1489L105.631 1.40909Z" fill="#232328"/>
<path d="M116.779 6.22314L113.171 4.98719L113.756 3.2959L122.954 6.41828L122.369 8.10958L118.761 6.87363L115.641 16.0131L113.626 15.3301L116.779 6.22314Z" fill="#232328"/>
<path d="M125.36 7.55664L127.31 8.43481L122.597 18.8753L120.647 17.9971L125.36 7.55664Z" fill="#232328"/>
<path d="M134.298 25.543L138.296 19.0706L131.763 22.4206L130.95 21.9328L131.015 14.6797L127.082 21.0546L125.36 19.9813L131.405 10.2563L132.9 11.167L132.738 20.0138L140.538 15.9157L142.033 16.8264L135.988 26.5838L134.298 25.543Z" fill="#232328"/>
<path d="M140.213 29.4134C139.855 28.4051 139.79 27.3969 140.018 26.3561C140.245 25.3153 140.701 24.4046 141.481 23.5915C142.228 22.7783 143.106 22.1929 144.113 21.9002C145.121 21.6075 146.128 21.5749 147.168 21.8351C148.208 22.0953 149.151 22.6157 149.996 23.3963C150.841 24.1769 151.459 25.0876 151.816 26.0959C152.174 27.1041 152.239 28.1124 152.011 29.1532C151.816 30.1615 151.329 31.1047 150.549 31.9178C149.801 32.731 148.923 33.3164 147.916 33.6091C146.908 33.9018 145.901 33.9344 144.861 33.6742C143.821 33.414 142.878 32.8936 142.033 32.113C141.156 31.3324 140.571 30.4217 140.213 29.4134ZM145.153 31.7552C145.836 31.9178 146.518 31.8853 147.201 31.6576C147.883 31.43 148.468 31.0397 148.988 30.4867C149.509 29.9338 149.834 29.2833 149.996 28.6003C150.159 27.9173 150.126 27.2342 149.899 26.5512C149.671 25.9007 149.281 25.2828 148.728 24.7624C148.176 24.242 147.526 23.9167 146.843 23.7541C146.161 23.5915 145.478 23.624 144.796 23.8517C144.113 24.0793 143.528 24.4696 143.008 25.0226C142.488 25.5755 142.163 26.226 142.001 26.909C141.838 27.592 141.871 28.275 142.098 28.9581C142.326 29.6411 142.716 30.2265 143.268 30.7469C143.853 31.2673 144.471 31.5926 145.153 31.7552Z" fill="#232328"/>
<path d="M156.822 33.3813L154.416 30.4216L155.814 29.2832L161.957 36.829L160.559 37.9673L158.154 35.0076L150.679 41.1223L149.346 39.4635L156.822 33.3813Z" fill="#232328"/>
<path d="M168.944 48.1154L159.129 54.0024L158.024 52.181L162.249 49.6766L159.226 44.5702L155.001 47.0746L153.896 45.2532L163.744 39.3662L164.849 41.1876L160.786 43.627L163.809 48.7334L167.872 46.294L168.944 48.1154Z" fill="#232328"/>
<path d="M165.922 59.6938L162.184 61.2225L161.372 59.2385L165.077 57.7424L170.277 50.7495L171.122 52.8636L167.222 58.0676L173.657 59.1084L174.437 61.0599L165.922 59.6938Z" fill="#232328"/>
<path d="M176.583 68.7686L177.005 70.8501L167.547 72.7366L168.717 78.6236L166.962 78.9814L165.37 71.0128L176.583 68.7686Z" fill="#232328"/>
<path d="M167.84 82.4289C168.295 81.4532 168.977 80.7051 169.822 80.1196C170.7 79.5342 171.675 79.2089 172.812 79.1764C173.917 79.1114 174.958 79.339 175.868 79.8269C176.778 80.3148 177.525 81.0303 178.078 81.941C178.63 82.8517 178.923 83.8925 178.988 85.0634C179.053 86.2343 178.858 87.3076 178.37 88.2508C177.883 89.1941 177.233 89.9747 176.388 90.5601C175.51 91.1456 174.535 91.4708 173.397 91.5033C172.26 91.5684 171.252 91.3407 170.342 90.8528C169.432 90.365 168.685 89.6494 168.132 88.7387C167.58 87.828 167.287 86.7872 167.222 85.6163C167.157 84.4454 167.352 83.3721 167.84 82.4289ZM169.692 87.5678C170.082 88.1533 170.57 88.6086 171.187 88.9339C171.805 89.2591 172.52 89.3892 173.267 89.3567C174.015 89.3242 174.698 89.0965 175.315 88.7387C175.9 88.3484 176.355 87.8606 176.68 87.2426C177.005 86.6246 177.135 85.9091 177.103 85.161C177.07 84.4129 176.843 83.7299 176.485 83.1119C176.095 82.5265 175.608 82.0711 174.99 81.7459C174.372 81.4206 173.657 81.2905 172.91 81.3231C172.162 81.3556 171.48 81.5833 170.862 81.941C170.277 82.3313 169.822 82.8192 169.497 83.4372C169.172 84.0551 169.042 84.7707 169.075 85.5188C169.14 86.2994 169.335 86.9824 169.692 87.5678Z" fill="#232328"/>
<path d="M177.59 102.302C177.167 102.985 176.647 103.505 175.997 103.83C175.347 104.156 174.6 104.253 173.755 104.188C172.942 104.091 172.227 103.83 171.675 103.375C171.09 102.92 170.7 102.302 170.44 101.521C170.18 100.74 170.115 99.8623 170.245 98.8866L170.537 96.3171L167.254 95.9593L167.482 93.8452L178.858 95.1137L178.338 99.7973C178.24 100.773 177.98 101.619 177.59 102.302ZM172.422 101.131C172.747 101.651 173.3 101.944 174.015 102.041C174.73 102.107 175.315 101.944 175.77 101.521C176.225 101.098 176.485 100.415 176.582 99.472L176.842 97.0001L172.325 96.5123L172.065 98.9841C171.967 99.8948 172.065 100.61 172.422 101.131Z" fill="#232328"/>
<path d="M165.564 114.043L163.842 113.588L165.987 105.261L177.07 108.123L174.99 116.222L173.267 115.767L174.827 109.717L171.935 108.969L170.57 114.336L168.88 113.913L170.245 108.546L167.189 107.766L165.564 114.043Z" fill="#232328"/>
<path d="M161.372 124.614L159.714 123.931L163.42 114.889L164.752 115.442L169.79 124.809L172.325 118.662L173.983 119.345L170.375 128.094L169.042 127.541L164.005 118.174L161.372 124.614Z" fill="#232328"/>
<path d="M159.324 131.217C159.779 131.086 160.234 131.184 160.689 131.444C161.111 131.704 161.371 132.062 161.501 132.55C161.599 133.005 161.534 133.461 161.274 133.884C161.014 134.306 160.656 134.567 160.201 134.664C159.714 134.794 159.292 134.697 158.869 134.437C158.447 134.176 158.154 133.786 158.057 133.331C157.959 132.843 158.024 132.42 158.284 131.997C158.479 131.574 158.837 131.314 159.324 131.217Z" fill="#232328"/>
<path d="M149.964 139.836C150.971 139.478 151.979 139.38 152.986 139.575C153.994 139.771 154.936 140.226 155.781 140.974C156.626 141.722 157.212 142.6 157.537 143.576C157.862 144.584 157.894 145.592 157.667 146.633C157.439 147.674 156.919 148.617 156.171 149.495C155.554 150.211 154.871 150.731 154.091 151.089C153.344 151.447 152.531 151.642 151.719 151.61L151.654 149.723C152.889 149.691 153.896 149.235 154.676 148.325C155.196 147.739 155.521 147.089 155.684 146.406C155.846 145.723 155.814 145.04 155.586 144.357C155.359 143.674 154.969 143.088 154.384 142.6C153.799 142.08 153.181 141.755 152.466 141.624C151.784 141.494 151.101 141.527 150.419 141.755C149.736 141.982 149.151 142.405 148.631 142.99C147.818 143.901 147.493 144.974 147.623 146.178L145.738 146.341C145.641 145.527 145.706 144.714 145.966 143.934C146.226 143.121 146.681 142.373 147.298 141.689C148.111 140.811 148.989 140.193 149.964 139.836Z" fill="#232328"/>
<path d="M139.27 153.105L143.658 149.397L142.813 146.633L144.503 145.202L147.948 157.301L146.355 158.667L135.012 153.235L136.702 151.804L139.27 153.105ZM140.895 153.918L145.77 156.358L144.178 151.154L140.895 153.918Z" fill="#232328"/>
<path d="M131.08 168.977L125.197 159.155L126.692 158.244L136.117 161.659L132.12 154.992L133.94 153.918L139.823 163.741L138.328 164.652L128.934 161.237L132.932 167.904L131.08 168.977Z" fill="#232328"/>
<path d="M126.789 171.091L122.109 172.913C120.972 173.368 119.866 173.531 118.826 173.433C117.754 173.336 116.844 172.978 116.031 172.36C115.219 171.742 114.634 170.896 114.211 169.856C113.789 168.782 113.691 167.774 113.854 166.766C114.016 165.757 114.471 164.879 115.186 164.099C115.901 163.318 116.811 162.7 117.949 162.245L122.629 160.423L126.789 171.091ZM118.729 163.871C117.949 164.164 117.299 164.587 116.844 165.139C116.356 165.66 116.064 166.278 115.966 166.961C115.869 167.644 115.966 168.359 116.226 169.075C116.519 169.823 116.909 170.376 117.461 170.831C117.981 171.254 118.631 171.514 119.346 171.579C120.061 171.644 120.809 171.547 121.589 171.222L124.189 170.213L121.329 162.895L118.729 163.871Z" fill="#232328"/>
<path d="M108.166 166.018C109.174 166.343 110.051 166.863 110.734 167.644C111.449 168.425 111.904 169.368 112.099 170.441C112.294 171.514 112.261 172.588 111.904 173.564C111.546 174.539 110.961 175.385 110.149 176.068C109.336 176.751 108.361 177.206 107.191 177.434C106.021 177.662 104.948 177.629 103.941 177.304C102.933 176.979 102.056 176.458 101.373 175.678C100.658 174.897 100.203 173.954 99.9755 172.848C99.748 171.742 99.813 170.701 100.171 169.726C100.528 168.75 101.113 167.904 101.926 167.221C102.738 166.538 103.713 166.083 104.883 165.855C106.053 165.66 107.126 165.693 108.166 166.018ZM103.356 168.62C102.836 169.075 102.446 169.628 102.218 170.311C101.991 170.994 101.958 171.71 102.121 172.458C102.283 173.206 102.576 173.856 103.031 174.377C103.486 174.897 104.071 175.287 104.721 175.515C105.371 175.743 106.086 175.775 106.833 175.613C107.581 175.45 108.231 175.157 108.751 174.702C109.271 174.247 109.661 173.694 109.889 173.011C110.116 172.328 110.149 171.612 109.986 170.864C109.824 170.116 109.531 169.465 109.076 168.945C108.621 168.425 108.036 168.034 107.386 167.807C106.703 167.579 106.021 167.546 105.273 167.709C104.526 167.872 103.876 168.164 103.356 168.62Z" fill="#232328"/>
<path d="M89.3474 167.644L91.8175 170.929C91.915 170.929 92.0775 170.896 92.2726 170.896L94.8727 170.799L94.7427 167.449L96.8553 167.384L97.2778 178.833L92.5651 178.995C91.5575 179.028 90.7125 178.898 89.9649 178.605C89.2174 178.312 88.6324 177.857 88.2098 177.271C87.7873 176.686 87.5598 175.97 87.5273 175.125C87.4948 174.247 87.6898 173.498 88.0798 172.88C88.4698 172.23 89.0549 171.742 89.8349 171.417L87.0723 167.742L89.3474 167.644ZM90.4525 176.686C90.94 177.076 91.655 177.239 92.5976 177.206L95.1002 177.109L94.9377 172.555L92.4351 172.653C91.4925 172.685 90.81 172.913 90.355 173.336C89.8999 173.759 89.6724 174.312 89.7049 175.06C89.7049 175.743 89.9649 176.296 90.4525 176.686Z" fill="#232328"/>
<path d="M80.0186 170.311C80.3111 170.701 80.4411 171.124 80.3761 171.644C80.3111 172.132 80.0836 172.523 79.6937 172.815C79.3037 173.108 78.8813 173.206 78.3938 173.141C77.9064 173.076 77.5164 172.848 77.224 172.458C76.9315 172.067 76.8015 171.644 76.8665 171.124C76.9315 170.604 77.159 170.213 77.5489 169.921C77.9389 169.628 78.3613 169.53 78.8488 169.595C79.3362 169.693 79.7262 169.921 80.0186 170.311Z" fill="#232328"/>
<path d="M67.6034 176.328L65.5562 175.775L68.4808 164.684L70.5281 165.237L67.6034 176.328Z" fill="#232328"/>
<path d="M51.873 170.897L56.0983 160.229L57.7234 160.879L60.746 170.409L63.6062 163.188L65.5563 163.969L61.3311 174.637L59.706 173.987L56.6833 164.457L53.8232 171.677L51.873 170.897Z" fill="#232328"/>
<path d="M46.705 166.083L49.9877 167.969L49.0776 169.53L40.6597 164.684L41.5697 163.123L44.8524 165.009L49.6627 156.65L51.5153 157.724L46.705 166.083Z" fill="#232328"/>
<path d="M37.3121 150.048L38.3847 148.617L45.2101 153.854L38.2222 162.961L31.5918 157.854L32.6644 156.423L37.6046 160.229L39.4247 157.854L35.0695 154.504L36.1421 153.106L40.5298 156.488L42.4474 153.984L37.3121 150.048Z" fill="#232328"/>
<path d="M27.139 145.657L25.7414 144.194L29.0241 141.006C29.7717 141.104 30.5192 141.364 31.2342 141.754C31.9493 142.145 32.5993 142.633 33.1844 143.251C33.9969 144.096 34.5494 145.039 34.8419 146.048C35.1345 147.056 35.1345 148.097 34.8745 149.105C34.6144 150.113 34.0619 150.991 33.2494 151.772C32.4368 152.553 31.5268 153.073 30.5192 153.301C29.5116 153.528 28.4716 153.496 27.464 153.171C26.4565 152.845 25.5139 152.26 24.7014 151.414C24.0188 150.731 23.5313 149.983 23.2388 149.203C22.9138 148.422 22.7838 147.609 22.8488 146.796L24.7339 146.861C24.7014 148.097 25.1239 149.17 26.0014 150.048C26.554 150.634 27.1715 151.024 27.8541 151.252C28.5366 151.479 29.2191 151.479 29.9017 151.317C30.5842 151.154 31.2017 150.796 31.7868 150.243C32.3393 149.723 32.6968 149.105 32.8918 148.422C33.0869 147.739 33.0869 147.056 32.8918 146.373C32.6968 145.69 32.3393 145.039 31.7868 144.487C31.1692 143.836 30.4867 143.413 29.7392 143.186L27.139 145.657Z" fill="#232328"/>
<path d="M24.0187 131.964L22.6212 135.802C22.6862 135.867 22.7837 135.997 22.8812 136.16L24.3763 138.274L27.1064 136.355L28.3415 138.079L18.9809 144.681L16.2508 140.843C15.6658 140.03 15.3082 139.217 15.1457 138.437C14.9832 137.656 15.0482 136.908 15.3082 136.225C15.5683 135.542 16.0558 134.956 16.7383 134.501C17.4534 134.013 18.1684 133.753 18.9159 133.72C19.6635 133.72 20.3785 133.916 21.0936 134.403L22.6537 130.078L24.0187 131.964ZM17.0633 137.819C17.0308 138.437 17.2583 139.12 17.8109 139.9L19.241 141.949L22.9787 139.315L21.5486 137.266C21.0286 136.518 20.4435 136.062 19.8585 135.9C19.241 135.737 18.6559 135.867 18.0709 136.29C17.4859 136.713 17.0958 137.201 17.0633 137.819Z" fill="#232328"/>
<path d="M11.7656 133.753L10.7256 131.899L20.7687 126.337L21.8087 128.191L11.7656 133.753Z" fill="#232328"/>
<path d="M9.52312 125.362L11.0182 128.842L9.36061 129.557L5.52539 120.646L7.18298 119.93L8.67807 123.41L17.5511 119.572L18.3961 121.524L9.52312 125.362Z" fill="#232328"/>
<path d="M10.3998 111.181L14.3001 110.075L14.8851 112.124L11.0174 113.23L5.10205 119.605L4.48451 117.426L8.93727 112.645L2.63191 110.921L2.04688 108.904L10.3998 111.181Z" fill="#232328"/>
<path d="M9.00252 100.35C8.71005 100.741 8.3201 100.936 7.80016 101.001C7.31272 101.066 6.85777 100.936 6.50031 100.643C6.11036 100.35 5.91538 99.96 5.85039 99.4721C5.78539 98.9842 5.91538 98.5614 6.20784 98.1711C6.50031 97.7808 6.89026 97.5531 7.4102 97.4881C7.93014 97.423 8.35259 97.5531 8.74255 97.8459C9.1325 98.1386 9.32748 98.5614 9.39247 99.0168C9.42497 99.5372 9.29498 99.96 9.00252 100.35Z" fill="#232328"/>
<path d="M1.95011 87.2424L1.7876 91.0478L0 90.9827L0.390022 81.2578L2.17762 81.3229L2.01511 85.1283L11.6682 85.486L11.5707 87.6002L1.95011 87.2424Z" fill="#232328"/>
<path d="M13.3258 72.8665L9.62056 74.5903C9.62056 74.6879 9.58806 74.8505 9.55556 75.0131L9.10053 77.5501L12.3832 78.1355L12.0257 80.2171L0.747559 78.2006L1.5601 73.5495C1.72261 72.5738 2.04763 71.7606 2.50266 71.0776C2.95768 70.3946 3.51022 69.9393 4.19275 69.6465C4.87529 69.3538 5.62284 69.2888 6.43538 69.4514C7.28043 69.614 7.96297 69.9393 8.5155 70.4596C9.06803 70.98 9.39305 71.6631 9.55556 72.4762L13.7158 70.5247L13.3258 72.8665ZM4.25776 72.0208C3.80273 72.4111 3.47771 73.0942 3.3152 74.0049L2.89268 76.4442L7.37794 77.2573L7.80046 74.818C7.96297 73.9073 7.89796 73.1917 7.57295 72.6388C7.28043 72.0859 6.7604 71.7606 6.04536 71.6305C5.33032 71.5004 4.71278 71.6305 4.25776 72.0208Z" fill="#232328"/>
<path d="M13.5525 67.1748C12.4149 67.7278 11.0823 67.7278 9.52224 67.1748L3.37939 65.0607L4.06193 63.0442L10.1073 65.1258C12.2199 65.8739 13.6175 65.3209 14.235 63.467C14.8525 61.6456 14.105 60.3446 11.9924 59.6291L5.94704 57.5475L6.62958 55.5635L12.7399 57.6776C14.3 58.2305 15.3726 59.0436 15.9251 60.182C16.4776 61.2878 16.5101 62.6214 15.9901 64.1175C15.5026 65.6137 14.6575 66.6219 13.5525 67.1748Z" fill="#232328"/>
<path d="M18.9486 55.791C18.3311 56.409 17.746 56.8318 17.161 57.0595L16.0234 55.6284C16.576 55.3682 17.096 55.0104 17.616 54.5226C18.1361 54.0347 18.5586 53.4818 18.8836 52.8638C19.2736 52.1157 19.4361 51.4652 19.4036 50.9774C19.3711 50.4895 19.1436 50.1317 18.7211 49.904C18.4286 49.7414 18.1361 49.7414 17.8435 49.839C17.551 49.9366 17.2585 50.1317 16.9985 50.3919C16.7385 50.6521 16.381 51.0424 15.9584 51.4978C15.3734 52.1808 14.8534 52.7012 14.4308 53.0915C14.0083 53.4818 13.4883 53.742 12.9358 53.8721C12.3507 54.0022 11.7332 53.9046 11.0832 53.5468C10.5306 53.2541 10.0756 52.8313 9.78308 52.2783C9.49056 51.7254 9.36056 51.0749 9.39306 50.3269C9.42556 49.5788 9.68558 48.7331 10.1731 47.855C10.4981 47.237 10.8881 46.6516 11.3432 46.1312C11.7982 45.6108 12.3182 45.2205 12.8058 44.9277L13.9758 46.2938C13.4883 46.619 13.0333 46.9768 12.6432 47.3671C12.2532 47.7899 11.9282 48.2127 11.7007 48.6681C11.3107 49.4162 11.1482 50.0341 11.2132 50.522C11.2782 51.0099 11.5057 51.3677 11.9282 51.5953C12.2207 51.758 12.5132 51.758 12.8058 51.6604C13.0983 51.5628 13.3908 51.3677 13.6508 51.1075C13.9108 50.8473 14.2683 50.457 14.6909 50.0016C15.2434 49.3511 15.7634 48.7982 16.1859 48.4404C16.641 48.0501 17.1285 47.7899 17.681 47.6598C18.2336 47.5297 18.8511 47.6273 19.5336 47.9525C20.0862 48.2453 20.5087 48.6681 20.8337 49.1885C21.1262 49.7414 21.2562 50.3919 21.1912 51.14C21.1262 51.8881 20.8987 52.7337 20.4112 53.6119C20.0537 54.49 19.5661 55.1731 18.9486 55.791Z" fill="#232328"/>
<path d="M16.8363 40.5694L14.6587 43.6918L13.1636 42.651L18.6889 34.6499L20.184 35.6907L18.0063 38.8131L26.0018 44.3423L24.7992 46.0987L16.8363 40.5694Z" fill="#232328"/>
<path d="M29.8364 34.4223C29.3489 34.4223 28.9265 34.2597 28.569 33.9019C28.2116 33.5441 28.0166 33.1539 28.0166 32.666C28.0166 32.1781 28.1791 31.7553 28.504 31.43C28.829 31.0723 29.2515 30.9096 29.7389 30.8771C30.2263 30.8446 30.6488 31.0072 31.0063 31.365C31.3637 31.7228 31.5587 32.1456 31.5587 32.6335C31.5587 33.1213 31.3962 33.5441 31.0712 33.8694C30.7463 34.2272 30.3238 34.3898 29.8364 34.4223Z" fill="#232328"/>
</svg>
