<svg width="30" height="18" viewBox="0 0 30 18" fill="none" xmlns="http://www.w3.org/2000/svg">
<rect x="21" y="6" width="1" height="6" fill="#E38F52"/>
<rect x="25" y="3" width="1" height="11" fill="#E38F52"/>
<rect x="29" width="1" height="18" fill="#E38F52"/>
<rect y="6" width="2" height="6" fill="#E38F52"/>
<rect x="15" width="2" height="18" fill="#E38F52"/>
<path d="M1.99998 6C1.99998 6 -5.62668e-05 5.99992 5.49998 6C11 6.00008 15 0 15 0V1.5C15 1.5 11.7583 7 5.49998 7C-0.758354 7 1.99998 7 1.99998 7V6Z" fill="#E38F52"/>
<path d="M1.99998 12C1.99998 12 -5.62668e-05 12.0001 5.49998 12C11 11.9999 15 18 15 18V16.5C15 16.5 11.7583 11 5.49998 11C-0.758354 11 1.99998 11 1.99998 11V12Z" fill="#E38F52"/>
</svg>
