<svg width="768" height="377" viewBox="0 0 768 377" fill="none" xmlns="http://www.w3.org/2000/svg">
<path d="M874.5 188.5C874.5 214.342 861.249 239.014 837.174 261.507C813.098 284.002 778.232 304.282 735.106 321.325C648.858 355.408 529.673 376.5 398 376.5C266.327 376.5 147.142 355.408 60.8938 321.325C17.7683 304.282 -17.0975 284.002 -41.1736 261.507C-65.2489 239.014 -78.5 214.342 -78.5 188.5C-78.5 162.658 -65.2489 137.986 -41.1736 115.493C-17.0975 92.9982 17.7683 72.7177 60.8938 55.6754C147.142 21.592 266.327 0.5 398 0.5C529.673 0.5 648.858 21.592 735.106 55.6754C778.232 72.7177 813.098 92.9982 837.174 115.493C861.249 137.986 874.5 162.658 874.5 188.5Z" stroke="#232328"/>
</svg>
