<svg width="593" height="235" viewBox="0 0 593 235" fill="none" xmlns="http://www.w3.org/2000/svg">
    <path d="M592.5 117.5C592.5 133.54 584.299 148.872 569.358 162.871C554.415 176.871 532.766 189.502 505.973 200.12C452.389 221.355 378.329 234.5 296.5 234.5C214.671 234.5 140.611 221.355 87.027 200.12C60.2336 189.502 38.5846 176.871 23.6423 162.871C8.70082 148.872 0.5 133.54 0.5 117.5C0.5 101.46 8.70082 86.1278 23.6423 72.1286C38.5846 58.1286 60.2336 45.4977 87.027 34.8798C140.611 13.645 214.671 0.5 296.5 0.5C378.329 0.5 452.389 13.645 505.973 34.8798C532.766 45.4977 554.415 58.1286 569.358 72.1286C584.299 86.1278 592.5 101.46 592.5 117.5Z" stroke="#232328"/>
</svg>
